<svg xmlns="http://www.w3.org/2000/svg" role="img" aria-label="MicroMasters Certificado" viewBox="0 0 565.51 275.83">
  <title class="micromasters-logo-title">Micromasters Certificado</title>
  <path d="M4139.37,5045q-11.28,0-17.76,7.22t-6.48,19.77q0,12.84,6.11,19.93t17.47,7.1a47.33,47.33,0,0,0,13.86-1.93v3.69a45.24,45.24,0,0,1-14.85,2.09q-12.63,0-19.89-8.16t-7.26-22.8a35.76,35.76,0,0,1,3.47-16.12,25.08,25.08,0,0,1,10-10.77,29.44,29.44,0,0,1,15.11-3.79,36.28,36.28,0,0,1,15.71,3.28l-1.68,3.77A30.42,30.42,0,0,0,4139.37,5045Z" transform="translate(-4110.58 -4827.03)"/>
  <path d="M4202.92,5102h-32.77v-60h32.77v3.86h-28.59v22.68h27v3.86h-27v25.72h28.59Z" transform="translate(-4110.58 -4827.03)"/>
  <path d="M4224.88,5075.91V5102h-4.18v-60H4235q11.16,0,16.49,4.12t5.33,12.41a16.22,16.22,0,0,1-3.18,10.17q-3.18,4.14-9.66,5.95l16.28,27.32h-5l-15.46-26.13Zm0-3.61h11.44q7.59,0,11.77-3.38t4.18-10q0-6.85-4.1-10t-13.37-3.12h-9.93Z" transform="translate(-4110.58 -4827.03)"/>
  <path d="M4290.44,5102h-4.22v-56h-19.48v-3.94h43.19V5046h-19.48Z" transform="translate(-4110.58 -4827.03)"/>
  <path d="M4323,5102v-60h4.18v60Z" transform="translate(-4110.58 -4827.03)"/>
  <path d="M4352.57,5102h-4.18v-60h32.85v3.86h-28.67v25.43h27.07v3.9h-27.07Z" transform="translate(-4110.58 -4827.03)"/>
  <path d="M4394.75,5102v-60h4.18v60Z" transform="translate(-4110.58 -4827.03)"/>
  <path d="M4445.71,5045q-11.28,0-17.76,7.22t-6.48,19.77q0,12.84,6.11,19.93t17.47,7.1a47.33,47.33,0,0,0,13.86-1.93v3.69a45.24,45.24,0,0,1-14.85,2.09q-12.63,0-19.89-8.16t-7.26-22.8a35.76,35.76,0,0,1,3.47-16.12,25.08,25.08,0,0,1,10-10.77,29.44,29.44,0,0,1,15.11-3.79,36.28,36.28,0,0,1,15.71,3.28l-1.68,3.77A30.42,30.42,0,0,0,4445.71,5045Z" transform="translate(-4110.58 -4827.03)"/>
  <path d="M4505.36,5080.88H4481l-8.37,21.16H4468l24.12-60.21h2.67L4518.4,5102h-4.72Zm-22.85-3.77H4504l-8.16-21.62q-1-2.54-2.46-7.05a65.88,65.88,0,0,1-2.42,7.14Z" transform="translate(-4110.58 -4827.03)"/>
  <path d="M4576.62,5071.48q0,15.09-7.92,22.83t-23.26,7.73h-14.36v-60h16.2q14.36,0,21.84,7.51T4576.62,5071.48Zm-4.55.16q0-12.88-6.54-19.38t-19.22-6.5h-11v52.58h9.93Q4572.07,5098.35,4572.07,5071.65Z" transform="translate(-4110.58 -4827.03)"/>
  <path d="M4645,5072q0,14.27-7.14,22.58t-19.69,8.31q-12.51,0-19.65-8.31t-7.14-22.66q0-14.31,7.2-22.54t19.67-8.22q12.55,0,19.65,8.26T4645,5072Zm-49.05,0q0,12.88,5.74,19.91t16.49,7q10.83,0,16.55-7t5.72-20q0-13-5.72-19.87t-16.47-6.91q-10.71,0-16.51,7T4596,5072Z" transform="translate(-4110.58 -4827.03)"/>
  <path d="M4141.17,5002.76,4120,4947.45h-.34q.6,6.57.6,15.62v39.69h-6.7v-62.39h10.92l19.76,51.47h.34l19.93-51.47h10.84v62.39h-7.25v-40.2q0-6.91.6-15h-.34L4147,5002.76Z" transform="translate(-4110.58 -4827.03)"/>
  <path d="M4183.81,4943.31a4.7,4.7,0,0,1,1.19-3.56,4.42,4.42,0,0,1,5.93,0,4.62,4.62,0,0,1,1.24,3.54,4.69,4.69,0,0,1-1.24,3.56A4.13,4.13,0,0,1,4188,4948a4.09,4.09,0,0,1-3-1.17A4.79,4.79,0,0,1,4183.81,4943.31Zm7.68,59.45h-7.08V4956h7.08Z" transform="translate(-4110.58 -4827.03)"/>
  <path d="M4220,5003.61q-10.16,0-15.73-6.25t-5.57-17.69q0-11.74,5.65-18.14t16.11-6.4a32,32,0,0,1,6.74.73,22.27,22.27,0,0,1,5.29,1.71l-2.18,6a33.45,33.45,0,0,0-5.12-1.56,22.92,22.92,0,0,0-4.91-.62q-14.25,0-14.25,18.18,0,8.62,3.48,13.23t10.31,4.61a31.5,31.5,0,0,0,12-2.52v6.27A25.56,25.56,0,0,1,4220,5003.61Z" transform="translate(-4110.58 -4827.03)"/>
  <path d="M4260.72,4955.13a27.73,27.73,0,0,1,5.59.51l-1,6.57a24.14,24.14,0,0,0-5.12-.64,12.46,12.46,0,0,0-9.71,4.61,16.81,16.81,0,0,0-4,11.48v25.09h-7.08V4956h5.85l.81,8.66h.34a20.55,20.55,0,0,1,6.27-7A14.13,14.13,0,0,1,4260.72,4955.13Z" transform="translate(-4110.58 -4827.03)"/>
  <path d="M4309.31,4979.33q0,11.44-5.76,17.86t-15.92,6.42a21.08,21.08,0,0,1-11.14-2.94,19.43,19.43,0,0,1-7.51-8.45,29.44,29.44,0,0,1-2.65-12.89q0-11.44,5.72-17.82t15.88-6.38q9.81,0,15.6,6.53T4309.31,4979.33Zm-35.63,0q0,9,3.58,13.66t10.54,4.69q7,0,10.56-4.67t3.61-13.68q0-8.92-3.61-13.55t-10.65-4.63q-7,0-10.5,4.57T4273.68,4979.33Z" transform="translate(-4110.58 -4827.03)"/>
  <path d="M4344.11,5002.76l-15-48.95h-.38q.81,14.94.81,19.93v29H4317.7v-62.39h18l14.77,47.71h.26l15.66-47.71h18v62.39h-12.33v-29.53q0-2.09.06-4.82t.58-14.51h-.38l-16.09,48.86Z" transform="translate(-4110.58 -4827.03)"/>
  <path d="M4424.13,5002.76l-2.52-6.49h-.34a19.23,19.23,0,0,1-6.76,5.74,21.86,21.86,0,0,1-9.07,1.6q-6.87,0-10.82-3.93t-3.95-11.18q0-7.6,5.31-11.2t16-4l8.28-.26V4971q0-7.25-7.43-7.25-5.72,0-13.44,3.46l-4.31-8.79a38.79,38.79,0,0,1,18.26-4.31q9.6,0,14.72,4.18t5.12,12.72v31.79Zm-3.84-22.11-5,.17q-5.68.17-8.45,2a6.43,6.43,0,0,0-2.77,5.72q0,5.51,6.32,5.51a10,10,0,0,0,7.23-2.6,9.14,9.14,0,0,0,2.71-6.91Z" transform="translate(-4110.58 -4827.03)"/>
  <path d="M4475.54,4988.59q0,7.34-5.1,11.18t-15.26,3.84a47.91,47.91,0,0,1-8.88-.7,33.52,33.52,0,0,1-6.87-2.07v-10.75a45.33,45.33,0,0,0,8.17,2.86,33.09,33.09,0,0,0,8,1.15q7.08,0,7.08-4.1a3.42,3.42,0,0,0-.94-2.5,13.62,13.62,0,0,0-3.24-2.18q-2.3-1.22-6.15-2.84a38.58,38.58,0,0,1-8.09-4.27,12,12,0,0,1-3.76-4.5,14.85,14.85,0,0,1-1.17-6.25,11.33,11.33,0,0,1,4.93-9.84q4.93-3.48,14-3.48a39.69,39.69,0,0,1,16.77,3.76l-3.93,9.39q-3.58-1.54-6.7-2.52a21.06,21.06,0,0,0-6.36-1q-5.76,0-5.76,3.12a3.66,3.66,0,0,0,1.86,3,50.45,50.45,0,0,0,8.13,3.8,37.85,37.85,0,0,1,8.19,4.22,12.51,12.51,0,0,1,3.84,4.52A13.91,13.91,0,0,1,4475.54,4988.59Z" transform="translate(-4110.58 -4827.03)"/>
  <path d="M4505.36,4993.24a28.19,28.19,0,0,0,8.19-1.49v9.69a29.22,29.22,0,0,1-11.95,2.18q-7.81,0-11.37-3.95t-3.56-11.84v-23h-6.23v-5.51l7.17-4.35,3.76-10.07h8.32V4955H4513v9.77h-13.36v23a5.08,5.08,0,0,0,1.56,4.1A6.14,6.14,0,0,0,4505.36,4993.24Z" transform="translate(-4110.58 -4827.03)"/>
  <path d="M4542.17,5003.61q-11.52,0-18-6.36t-6.49-18q0-12,6-18.54t16.58-6.55q10.11,0,15.75,5.76t5.63,15.92v6.32h-30.77q.21,5.55,3.29,8.66t8.62,3.12a35.79,35.79,0,0,0,8.15-.9,40.78,40.78,0,0,0,8-2.86v10.07a30.57,30.57,0,0,1-7.3,2.54A46,46,0,0,1,4542.17,5003.61Zm-1.84-40.2a8.25,8.25,0,0,0-6.49,2.62,12.14,12.14,0,0,0-2.69,7.45h18.26q-.09-4.82-2.52-7.45A8.53,8.53,0,0,0,4540.33,4963.41Z" transform="translate(-4110.58 -4827.03)"/>
  <path d="M4594.47,4954.15a21,21,0,0,1,4.4.38l-1,12.2a15,15,0,0,0-3.84-.43q-6.23,0-9.71,3.2t-3.48,9v24.28h-13V4955h9.86l1.92,8h.64a17.94,17.94,0,0,1,6-6.47A14.79,14.79,0,0,1,4594.47,4954.15Z" transform="translate(-4110.58 -4827.03)"/>
  <path d="M4639.07,4988.59q0,7.34-5.1,11.18t-15.26,3.84a47.91,47.91,0,0,1-8.88-.7,33.52,33.52,0,0,1-6.87-2.07v-10.75a45.33,45.33,0,0,0,8.17,2.86,33.09,33.09,0,0,0,8,1.15q7.08,0,7.08-4.1a3.42,3.42,0,0,0-.94-2.5,13.62,13.62,0,0,0-3.24-2.18q-2.3-1.22-6.15-2.84a38.58,38.58,0,0,1-8.09-4.27,12,12,0,0,1-3.76-4.5,14.85,14.85,0,0,1-1.17-6.25,11.33,11.33,0,0,1,4.93-9.84q4.93-3.48,14-3.48a39.69,39.69,0,0,1,16.77,3.76l-3.93,9.39q-3.58-1.54-6.7-2.52a21.06,21.06,0,0,0-6.36-1q-5.76,0-5.76,3.12a3.66,3.66,0,0,0,1.86,3,50.45,50.45,0,0,0,8.13,3.8A37.85,37.85,0,0,1,4634,4978a12.51,12.51,0,0,1,3.84,4.52A13.91,13.91,0,0,1,4639.07,4988.59Z" transform="translate(-4110.58 -4827.03)"/>
  <rect x="4112.51" y="4916.66" width="196.47" height="5.22" transform="translate(-4118.05 -4820.63) rotate(-0.09)"/>
  <path d="M4120.26,4902.46a92.88,92.88,0,0,1,17.09-34,194.37,194.37,0,0,0,19.36,4.84,90.23,90.23,0,0,0-10.9,29.19h6a84.71,84.71,0,0,1,11-28.05,278.39,278.39,0,0,0,45.87,4.12v23.93h5.83v-23.94a280.54,280.54,0,0,0,46.06-4.4,84.34,84.34,0,0,1,11.12,28.35h6a89.86,89.86,0,0,0-11-29.51q9.39-1.91,19.13-4.62a92.87,92.87,0,0,1,17.17,34.13H4309c-11.08-44.41-51.13-75.43-97.4-75.43s-86.32,31-97.4,75.43Zm161.34-39q-9.29,2.49-18.26,4.23c-11.58-17-27.07-27.76-38-33.81A94.57,94.57,0,0,1,4281.6,4863.44Zm-67.09-28.51c8.62,3.85,28.24,14.24,42.49,33.89a274.75,274.75,0,0,1-42.49,3.87Zm-5.83,37.78a272.67,272.67,0,0,1-42.31-3.6c14.13-19.58,33.57-30.08,42.31-34.06Zm-10.38-38.92c-10.95,6.09-26.6,17-38.28,34.19-8.36-1.61-14.68-3.28-18.54-4.4A94.54,94.54,0,0,1,4198.3,4833.8Z" transform="translate(-4110.58 -4827.03)"/>
  <path d="M4647.29,4953.64a14.24,14.24,0,0,1,1.92-7.18,14,14,0,0,1,5.27-5.29,14.43,14.43,0,0,1,14.4,0,14,14,0,0,1,5.29,5.27,14.41,14.41,0,1,1-26.87,7.22Zm2.36,0a12,12,0,0,0,18.1,10.41,12,12,0,0,0,4.4-4.4,12.05,12.05,0,0,0-16.43-16.46,12,12,0,0,0-4.41,4.39A11.75,11.75,0,0,0,4649.65,4953.64Zm17.89-3.41a4.41,4.41,0,0,1-2.93,4.46l4.54,7.6h-4l-3.68-6.63h-1.72v6.63h-3.62V4945h5a7.52,7.52,0,0,1,4.88,1.3A4.84,4.84,0,0,1,4667.53,4950.23Zm-7.83,2.66H4661a3.06,3.06,0,0,0,2.14-.67,2.47,2.47,0,0,0,.73-1.92,2.31,2.31,0,0,0-.7-1.92,3.6,3.6,0,0,0-2.21-.55h-1.28Z" transform="translate(-4110.58 -4827.03)"/>
</svg>