<svg xmlns="http://www.w3.org/2000/svg" viewBox="0 0 862.14 270.12" aria-label="MicroMasters">
    <defs>
        <style>.cls-1{fill:#020404;}</style>
    </defs>
    <title class="micromasters-logo-title">MicroMasters</title>
    <g id="MM_logo" data-name="MM logo">
        <path class="cls-1" d="M43.85,268.82l-32.38-84.6h-.52q.91,10.05.91,23.89v60.71H1.61V173.38H18.33L48.55,252.1h.52l30.49-78.73H96.14v95.44H85V207.32q0-10.58.91-23h-.52L52.79,268.82Z"/>
        <path class="cls-1" d="M109.08,177.88q0-3.72,1.83-5.45a6.77,6.77,0,0,1,9.07,0q1.89,1.76,1.89,5.42T120,183.33a6.32,6.32,0,0,1-4.5,1.8,6.25,6.25,0,0,1-4.57-1.8Q109.08,181.54,109.08,177.88Zm11.75,90.94H110V197.27h10.84Z"/>
        <path class="cls-1" d="M164.38,270.12q-15.54,0-24.06-9.56T131.8,233.5q0-18,8.65-27.74T165.1,196a49,49,0,0,1,10.31,1.11,34.07,34.07,0,0,1,8.09,2.61l-3.33,9.2a51.17,51.17,0,0,0-7.83-2.38,35.06,35.06,0,0,0-7.51-.95q-21.8,0-21.8,27.81,0,13.19,5.32,20.24t15.77,7.05a48.18,48.18,0,0,0,18.34-3.85v9.6Q175.28,270.12,164.38,270.12Z"/>
        <path class="cls-1" d="M226.73,196a42.41,42.41,0,0,1,8.55.78l-1.5,10.05a36.93,36.93,0,0,0-7.83-1q-8.68,0-14.85,7.05t-6.17,17.56v38.39H194.09V197.27H203l1.24,13.25h.52a31.44,31.44,0,0,1,9.6-10.77A21.61,21.61,0,0,1,226.73,196Z"/>
        <path class="cls-1" d="M301.06,233q0,17.5-8.81,27.32t-24.35,9.82a32.25,32.25,0,0,1-17-4.5,29.73,29.73,0,0,1-11.49-12.93,45,45,0,0,1-4-19.71q0-17.49,8.75-27.25T268.35,196q15,0,23.86,10T301.06,233Zm-54.51,0q0,13.71,5.48,20.89T268.16,261q10.64,0,16.16-7.15T289.83,233q0-13.64-5.52-20.73T268,205.17q-10.64,0-16.06,7T246.55,233Z"/>
        <path class="cls-1" d="M354.3,268.82l-23-74.88h-.59Q332,216.79,332,224.43v44.39H313.89V173.38h27.55l22.59,73h.39l24-73h27.55v95.44H397.06V223.64q0-3.2.1-7.38t.88-22.2h-.59l-24.61,74.75Z"/>
        <path class="cls-1" d="M476.71,268.82l-3.85-9.92h-.52q-5,6.33-10.35,8.78t-13.87,2.45q-10.51,0-16.55-6t-6-17.1q0-11.62,8.13-17.14t24.51-6.1l12.66-.39v-3.2q0-11.1-11.36-11.1-8.75,0-20.56,5.29l-6.59-13.45a59.34,59.34,0,0,1,27.94-6.59q14.69,0,22.52,6.4t7.83,19.45v48.63ZM470.84,235l-7.7.26q-8.68.26-12.93,3.13T446,247.14q0,8.42,9.66,8.42,6.92,0,11.07-4A14,14,0,0,0,470.84,241Z"/>
        <path class="cls-1" d="M555.35,247.14q0,11.23-7.8,17.1t-23.34,5.88A73.29,73.29,0,0,1,510.63,269a51.27,51.27,0,0,1-10.51-3.17V249.43a69.34,69.34,0,0,0,12.5,4.37,50.62,50.62,0,0,0,12.24,1.76q10.84,0,10.84-6.27a5.24,5.24,0,0,0-1.44-3.82,20.83,20.83,0,0,0-5-3.33q-3.53-1.86-9.4-4.34-8.42-3.53-12.37-6.53a18.35,18.35,0,0,1-5.74-6.89,22.71,22.71,0,0,1-1.8-9.56q0-9.73,7.54-15t21.38-5.32a60.71,60.71,0,0,1,25.66,5.74l-6,14.36q-5.48-2.35-10.25-3.85a32.21,32.21,0,0,0-9.73-1.5q-8.81,0-8.81,4.77,0,2.68,2.84,4.63T535,224.43q8.55,3.46,12.53,6.46a19.14,19.14,0,0,1,5.88,6.92A21.27,21.27,0,0,1,555.35,247.14Z"/>
        <path class="cls-1" d="M601,254.26A43.13,43.13,0,0,0,613.5,252v14.82q-7.44,3.33-18.28,3.33-11.95,0-17.4-6T572.37,246V210.78h-9.53v-8.42l11-6.66,5.74-15.41h12.73v15.54h20.43v14.95H592.28V246q0,4.24,2.38,6.27A9.4,9.4,0,0,0,601,254.26Z"/>
        <path class="cls-1" d="M657.28,270.12q-17.63,0-27.55-9.73t-9.92-27.55q0-18.34,9.17-28.36t25.36-10q15.47,0,24.09,8.81T687,227.62v9.66H640q.33,8.49,5,13.25t13.19,4.77a54.75,54.75,0,0,0,12.47-1.37,62.38,62.38,0,0,0,12.27-4.37V265a46.76,46.76,0,0,1-11.16,3.88A70.39,70.39,0,0,1,657.28,270.12Zm-2.81-61.49q-6.33,0-9.92,4T640.43,224h27.94q-.13-7.38-3.85-11.39T654.47,208.63Z"/>
        <path class="cls-1" d="M737.28,194.46A32.12,32.12,0,0,1,744,195l-1.5,18.67a22.86,22.86,0,0,0-5.88-.65q-9.53,0-14.85,4.9t-5.32,13.71v37.14H696.55v-73h15.08l2.94,12.27h1a27.44,27.44,0,0,1,9.17-9.89A22.62,22.62,0,0,1,737.28,194.46Z"/>
        <path class="cls-1" d="M805.5,247.14q0,11.23-7.8,17.1t-23.34,5.88A73.29,73.29,0,0,1,760.79,269a51.27,51.27,0,0,1-10.51-3.17V249.43a69.34,69.34,0,0,0,12.5,4.37A50.62,50.62,0,0,0,775,255.56q10.84,0,10.84-6.27a5.24,5.24,0,0,0-1.44-3.82,20.83,20.83,0,0,0-5-3.33q-3.53-1.86-9.4-4.34-8.42-3.53-12.37-6.53a18.35,18.35,0,0,1-5.74-6.89,22.71,22.71,0,0,1-1.8-9.56q0-9.73,7.54-15t21.38-5.32a60.71,60.71,0,0,1,25.66,5.74l-6,14.36q-5.48-2.35-10.25-3.85a32.21,32.21,0,0,0-9.73-1.5q-8.81,0-8.81,4.77,0,2.68,2.84,4.63t12.44,5.81q8.55,3.46,12.53,6.46a19.14,19.14,0,0,1,5.88,6.92A21.27,21.27,0,0,1,805.5,247.14Z"/>
        <rect class="cls-1" x="0.01" y="137.12" width="300.55" height="7.98" transform="translate(-0.21 0.23) rotate(-0.09)"/>
        <path class="cls-1" d="M11.86,115.39A142.09,142.09,0,0,1,38,63.32a297.33,297.33,0,0,0,29.62,7.41A138,138,0,0,0,51,115.39h9.11A129.59,129.59,0,0,1,76.94,72.48a425.87,425.87,0,0,0,70.18,6.3v36.61H156V78.76A429.15,429.15,0,0,0,226.5,72a129,129,0,0,1,17,43.37h9.11A137.45,137.45,0,0,0,235.8,70.25q14.37-2.92,29.27-7.07a142.06,142.06,0,0,1,26.27,52.21h9.26C283.65,47.45,222.39,0,151.6,0s-132,47.44-149,115.39ZM258.67,55.7q-14.21,3.81-27.94,6.47C213,36.2,189.32,19.7,172.61,10.45A144.66,144.66,0,0,1,258.67,55.7ZM156,12.09c13.19,5.89,43.21,21.78,65,51.85a420.3,420.3,0,0,1-65,5.92Zm-8.92,57.8a417.11,417.11,0,0,1-64.73-5.5c21.61-30,51.35-46,64.73-52.11ZM131.24,10.35c-16.74,9.31-40.7,26-58.55,52.3-12.79-2.46-22.46-5-28.36-6.74A144.62,144.62,0,0,1,131.24,10.35Z"/>
        <path class="cls-1" d="M818.08,193.68a21.79,21.79,0,0,1,2.93-11,21.49,21.49,0,0,1,8.06-8.09,22.08,22.08,0,0,1,22,0,21.49,21.49,0,0,1,8.09,8.06,22,22,0,1,1-41.1,11Zm3.6,0a18.41,18.41,0,0,0,27.69,15.92,18.31,18.31,0,0,0,6.72-6.74A18.43,18.43,0,0,0,831,177.69a18.31,18.31,0,0,0-6.75,6.71A18,18,0,0,0,821.69,193.68ZM849,188.47a6.75,6.75,0,0,1-4.48,6.83l6.94,11.63h-6.18l-5.62-10.14h-2.64v10.14h-5.54V180.47h7.68q5.1,0,7.47,2T849,188.47Zm-12,4.07h2a4.69,4.69,0,0,0,3.28-1,3.78,3.78,0,0,0,1.11-2.93,3.53,3.53,0,0,0-1.07-2.94,5.51,5.51,0,0,0-3.38-.83h-2Z"/>
    </g>
</svg>
