<?xml version="1.0" standalone="no"?>
<!DOCTYPE svg PUBLIC "-//W3C//DTD SVG 20010904//EN"
 "http://www.w3.org/TR/2001/REC-SVG-20010904/DTD/svg10.dtd">
<svg version="1.0" xmlns="http://www.w3.org/2000/svg"
 width="660.000000pt" height="90.000000pt" viewBox="0 0 660.000000 90.000000"
 preserveAspectRatio="xMidYMid meet">

<g transform="translate(0.000000,90.000000) scale(0.100000,-0.100000)"
fill="#000000" stroke="none">
<path d="M3853 893 c-10 -4 -13 -86 -13 -364 l0 -360 68 3 67 3 3 187 2 188
30 15 c40 20 83 19 111 -4 23 -19 24 -24 27 -206 l4 -186 66 3 67 3 3 114 c3
140 -11 278 -34 327 -24 49 -68 67 -155 62 -46 -2 -74 -9 -87 -21 -10 -9 -22
-17 -25 -17 -4 0 -7 59 -7 130 l0 130 -57 -1 c-32 0 -64 -3 -70 -6z"/>
<path d="M4862 538 l3 -363 68 -3 67 -3 0 366 0 365 -70 0 -70 0 2 -362z"/>
<path d="M6434 876 c-44 -19 -64 -53 -64 -106 0 -52 18 -83 62 -106 41 -21 93
-12 130 22 24 24 28 35 28 84 0 62 -18 88 -73 109 -36 14 -45 13 -83 -3z m110
-31 c22 -20 26 -33 26 -78 0 -39 -5 -58 -17 -69 -50 -44 -92 -44 -138 -2 -20
19 -25 32 -25 73 0 43 4 53 31 75 40 34 87 34 123 1z"/>
<path d="M6447 833 c-4 -3 -7 -31 -7 -62 1 -43 3 -52 11 -38 14 24 59 23 59
-2 0 -11 4 -22 10 -26 5 -3 8 17 7 51 -2 42 -7 59 -22 70 -20 15 -47 18 -58 7z
m58 -33 c0 -18 -33 -26 -47 -12 -6 6 -7 15 -3 22 10 16 50 8 50 -10z"/>
<path d="M2300 518 l0 -351 153 7 c195 9 231 14 270 40 41 27 77 98 77 151 -1
53 -33 122 -65 137 -32 15 -32 28 4 62 40 38 58 105 42 156 -29 96 -93 127
-276 136 -60 2 -131 6 -157 9 l-48 4 0 -351z m310 207 c50 -26 49 -106 -2
-138 -13 -8 -56 -17 -95 -20 l-73 -4 0 95 0 95 71 -7 c39 -3 83 -13 99 -21z
m19 -281 c41 -34 44 -92 6 -129 -22 -23 -32 -25 -110 -25 l-85 0 0 90 0 90 79
0 c71 0 83 -3 110 -26z"/>
<path d="M50 536 c0 -178 3 -331 6 -340 5 -13 29 -22 36 -13 1 1 4 132 7 290
l6 289 94 -224 c124 -294 156 -358 180 -358 20 0 39 37 149 300 38 91 81 190
95 220 l25 55 1 -292 1 -293 30 0 30 0 0 340 c0 308 -2 341 -17 347 -9 3 -28
0 -42 -8 -21 -12 -50 -70 -146 -293 -66 -153 -124 -279 -129 -280 -9 -1 -25
33 -156 344 -99 233 -103 240 -141 240 l-29 0 0 -324z"/>
<path d="M844 845 c-9 -23 3 -45 24 -45 29 0 48 26 32 45 -7 8 -21 15 -32 15
-10 0 -21 -7 -24 -15z"/>
<path d="M1163 681 c-75 -19 -125 -76 -149 -171 -21 -81 -13 -162 20 -229 22
-43 75 -100 94 -101 4 -1 26 -5 50 -9 55 -11 124 2 163 31 34 25 69 77 69 102
0 27 -38 19 -54 -12 -8 -15 -26 -38 -41 -52 -23 -21 -36 -25 -90 -25 -73 0
-106 19 -140 76 -27 46 -28 193 -2 261 45 116 196 125 261 15 38 -66 77 -72
61 -10 -9 38 -40 78 -78 102 -37 23 -117 34 -164 22z"/>
<path d="M1651 679 c-13 -5 -36 -19 -53 -30 l-29 -21 -15 21 c-18 25 -39 27
-48 5 -3 -9 -6 -121 -6 -250 l0 -234 30 0 30 0 0 190 0 189 38 37 c40 39 70
54 107 54 29 0 41 16 25 35 -14 17 -44 18 -79 4z"/>
<path d="M1926 679 c-56 -13 -97 -48 -130 -109 -25 -46 -29 -63 -28 -134 0
-110 15 -159 62 -206 87 -87 232 -89 311 -3 53 57 64 90 64 198 0 78 -4 108
-19 135 -23 44 -63 88 -97 105 -36 19 -116 26 -163 14z m140 -64 c109 -64 129
-263 35 -356 -59 -60 -149 -65 -211 -12 -136 114 -70 393 94 393 24 0 56 -10
82 -25z"/>
<path d="M2999 675 c-52 -17 -129 -91 -129 -125 0 -18 6 -20 60 -20 53 0 64 3
83 25 13 15 37 28 58 31 50 8 79 -20 79 -76 l0 -40 -78 0 c-130 0 -212 -60
-212 -155 0 -114 131 -184 248 -131 30 13 45 16 54 8 7 -5 40 -13 72 -17 l59
-8 -5 195 c-6 227 -14 257 -84 296 -54 29 -144 37 -205 17z m151 -317 c0 -49
-6 -60 -38 -77 -54 -29 -122 -4 -122 44 0 45 43 74 113 75 l47 0 0 -42z"/>
<path d="M3507 676 c-57 -16 -99 -53 -129 -115 -19 -37 -23 -63 -23 -136 0
-81 3 -95 30 -145 38 -69 93 -108 161 -116 100 -12 213 48 234 124 16 60 15
62 -42 62 -48 0 -56 -3 -83 -35 -59 -70 -142 -51 -166 38 -13 48 -5 158 14
187 16 26 61 44 91 36 14 -3 40 -24 57 -46 30 -37 36 -40 81 -40 59 0 67 13
43 75 -16 44 -60 90 -99 105 -44 16 -122 19 -169 6z"/>
<path d="M4540 683 c-55 -7 -72 -15 -109 -48 -103 -93 -118 -289 -31 -389 72
-82 214 -105 318 -52 29 15 55 33 58 41 5 13 -31 85 -42 85 -3 0 -18 -10 -34
-21 -44 -33 -117 -36 -160 -7 -37 25 -69 72 -57 84 4 4 77 9 162 12 l155 5 0
47 c0 98 -51 199 -114 225 -34 14 -107 23 -146 18z m104 -128 c14 -13 26 -35
26 -48 0 -24 -3 -25 -91 -32 -50 -3 -93 -4 -96 -1 -3 3 0 19 7 36 29 69 104
91 154 45z"/>
<path d="M5245 681 c-114 -30 -179 -123 -179 -256 0 -121 55 -209 152 -245
150 -57 292 29 321 194 28 162 -66 301 -211 311 -29 2 -66 1 -83 -4z m112
-118 c49 -33 70 -165 35 -233 -38 -77 -145 -72 -179 7 -21 52 -13 164 14 201
38 52 78 59 130 25z"/>
<path d="M5785 669 c-25 -14 -41 -17 -43 -10 -2 7 -31 11 -73 11 l-69 0 0
-250 0 -251 68 3 67 3 5 165 c3 91 9 173 14 182 8 17 55 35 106 40 22 3 25 8
28 51 5 79 -27 96 -103 56z"/>
<path d="M6035 676 c-22 -9 -55 -31 -72 -50 -28 -31 -33 -43 -33 -87 0 -27 5
-59 10 -69 14 -26 79 -63 163 -93 65 -24 107 -51 107 -69 0 -24 -42 -48 -86
-48 -37 0 -50 5 -72 29 -30 32 -75 46 -116 35 -36 -9 -33 -32 9 -81 44 -52
101 -75 187 -75 76 -1 149 29 181 73 26 37 25 110 -3 149 -27 38 -44 47 -155
85 -86 29 -90 31 -93 62 -3 27 2 34 28 48 38 20 79 8 105 -31 13 -21 23 -24
75 -24 32 0 62 5 65 10 4 6 -2 27 -12 48 -38 74 -195 122 -288 88z"/>
<path d="M856 649 c-8 -40 -8 -432 0 -453 8 -21 30 -21 38 0 8 20 8 432 0 462
-9 32 -30 27 -38 -9z"/>
</g>
</svg>
