<svg xmlns="http://www.w3.org/2000/svg" xmlns:xlink="http://www.w3.org/1999/xlink" viewBox="0 0 655.01 137.91"><defs><style>.cls-1{fill:none;}.cls-2{fill:#002c2b;}.cls-3{clip-path:url(#clip-path);}.cls-4{fill:#02262b;}</style><clipPath id="clip-path" transform="translate(0)"><rect class="cls-1" x="0.12" y="61.9" width="654.89" height="76"/></clipPath></defs><g id="Layer_2" data-name="Layer 2"><g id="Layer_1-2" data-name="Layer 1"><path class="cls-2" d="M33.25,14.81H25.47a7.6,7.6,0,0,0-.87-2.69,6.88,6.88,0,0,0-1.69-2,7.29,7.29,0,0,0-2.37-1.27,9,9,0,0,0-2.9-.45,8.76,8.76,0,0,0-4.92,1.39,9,9,0,0,0-3.25,4.05,16.12,16.12,0,0,0-1.15,6.44,16.31,16.31,0,0,0,1.16,6.53,8.79,8.79,0,0,0,3.26,4,8.73,8.73,0,0,0,4.85,1.35,9.69,9.69,0,0,0,2.86-.41,7.31,7.31,0,0,0,2.36-1.2,7,7,0,0,0,1.71-1.93A7.76,7.76,0,0,0,25.47,26l7.78,0a14.4,14.4,0,0,1-4.72,9,15,15,0,0,1-4.79,2.87,17.49,17.49,0,0,1-6.28,1.06,17.09,17.09,0,0,1-8.69-2.2,15.65,15.65,0,0,1-6-6.38A21.37,21.37,0,0,1,.52,20.26,21.16,21.16,0,0,1,2.76,10.14,15.75,15.75,0,0,1,8.83,3.77a17.12,17.12,0,0,1,8.63-2.19,18.76,18.76,0,0,1,5.87.89,14.9,14.9,0,0,1,4.8,2.58A13.42,13.42,0,0,1,31.55,9.2,15.55,15.55,0,0,1,33.25,14.81Z" transform="translate(0)"/><path class="cls-2" d="M51.05,39a14.48,14.48,0,0,1-7.23-1.71,11.56,11.56,0,0,1-4.66-4.86,16,16,0,0,1-1.63-7.47,15.94,15.94,0,0,1,1.63-7.39,12,12,0,0,1,4.61-4.95,13.39,13.39,0,0,1,7-1.78,14.58,14.58,0,0,1,5,.86,11.41,11.41,0,0,1,4.08,2.59,11.75,11.75,0,0,1,2.73,4.32,17.31,17.31,0,0,1,1,6.08v2.08h-23V22.05H56.45a5.71,5.71,0,0,0-.71-2.89,5.11,5.11,0,0,0-2-2,5.7,5.7,0,0,0-2.9-.72,5.8,5.8,0,0,0-3.05.79,5.74,5.74,0,0,0-2.07,2.11A6.09,6.09,0,0,0,45,22.3v4.46a7.53,7.53,0,0,0,.76,3.5,5.37,5.37,0,0,0,2.13,2.27,6.52,6.52,0,0,0,3.29.8A7.08,7.08,0,0,0,53.49,33a4.6,4.6,0,0,0,2.93-2.8l7,.46A9.52,9.52,0,0,1,61.24,35,11.08,11.08,0,0,1,57,37.94,15.94,15.94,0,0,1,51.05,39Z" transform="translate(0)"/><path class="cls-2" d="M68.51,38.44V11.17h7.33v4.76h.29a7,7,0,0,1,2.5-3.85,6.6,6.6,0,0,1,4.05-1.3,10.7,10.7,0,0,1,1.22.07,9.69,9.69,0,0,1,1.16.19v6.72a9.18,9.18,0,0,0-1.48-.29,13.59,13.59,0,0,0-1.72-.12,6,6,0,0,0-3,.72,5.32,5.32,0,0,0-2.06,2,5.66,5.66,0,0,0-.76,3V38.44Z" transform="translate(0)"/><path class="cls-2" d="M104.82,11.17v5.68H88.39V11.17ZM92.12,4.63h7.57V30.06a3.34,3.34,0,0,0,.32,1.63,1.73,1.73,0,0,0,.89.8,3.52,3.52,0,0,0,1.34.23,6.35,6.35,0,0,0,1.07-.09l.82-.15,1.19,5.62c-.38.12-.92.26-1.6.42a13,13,0,0,1-2.51.29,11.38,11.38,0,0,1-4.78-.72,6.68,6.68,0,0,1-3.19-2.6,7.92,7.92,0,0,1-1.12-4.44Z" transform="translate(0)"/><path class="cls-2" d="M113.55,7.65a4.1,4.1,0,0,1-2.89-1.12,3.62,3.62,0,0,1-1.21-2.71,3.58,3.58,0,0,1,1.21-2.69,4.26,4.26,0,0,1,5.78,0,3.57,3.57,0,0,1,1.2,2.69,3.61,3.61,0,0,1-1.2,2.71A4.07,4.07,0,0,1,113.55,7.65Zm-3.81,30.79V11.17h7.56V38.44Z" transform="translate(0)"/><path class="cls-2" d="M138,11.17v5.68H121.17V11.17ZM125,38.44V9.2a9.43,9.43,0,0,1,1.16-4.92,7.34,7.34,0,0,1,3.19-2.93,10.42,10.42,0,0,1,4.59-1,17.41,17.41,0,0,1,3.19.27q1.46.27,2.16.48L138,6.8c-.3-.09-.66-.18-1.09-.27a7.31,7.31,0,0,0-1.33-.12,2.94,2.94,0,0,0-2.32.77,3.24,3.24,0,0,0-.66,2.16v29.1Z" transform="translate(0)"/><path class="cls-2" d="M146.44,7.65a4.11,4.11,0,0,1-2.9-1.12,3.61,3.61,0,0,1-1.2-2.71,3.57,3.57,0,0,1,1.2-2.69,4.26,4.26,0,0,1,5.78,0,3.57,3.57,0,0,1,1.2,2.69,3.61,3.61,0,0,1-1.2,2.71A4.06,4.06,0,0,1,146.44,7.65Zm-3.82,30.79V11.17h7.56V38.44Z" transform="translate(0)"/><path class="cls-2" d="M168.54,39a13.88,13.88,0,0,1-7.2-1.78,11.88,11.88,0,0,1-4.61-5,16,16,0,0,1-1.61-7.32,16,16,0,0,1,1.62-7.36,12.08,12.08,0,0,1,4.63-5,13.71,13.71,0,0,1,7.14-1.79,14.27,14.27,0,0,1,6.25,1.3A10.46,10.46,0,0,1,179,15.75a10.65,10.65,0,0,1,1.72,5.5h-7.13A5.6,5.6,0,0,0,172,18a4.65,4.65,0,0,0-3.37-1.25,5.08,5.08,0,0,0-3.06.95,6.06,6.06,0,0,0-2,2.76,11.67,11.67,0,0,0-.73,4.38,12.11,12.11,0,0,0,.72,4.44,6.08,6.08,0,0,0,2,2.79,5.41,5.41,0,0,0,5.41.43,4.66,4.66,0,0,0,1.72-1.56,6.12,6.12,0,0,0,.9-2.45h7.13A11.1,11.1,0,0,1,179,33.94a10.37,10.37,0,0,1-4.18,3.7A13.94,13.94,0,0,1,168.54,39Z" transform="translate(0)"/><path class="cls-2" d="M193.37,39a11.33,11.33,0,0,1-4.66-.92,7.37,7.37,0,0,1-3.22-2.71,8.16,8.16,0,0,1-1.18-4.51,8,8,0,0,1,.83-3.81,6.83,6.83,0,0,1,2.28-2.49,11,11,0,0,1,3.27-1.42,24.79,24.79,0,0,1,3.87-.67c1.58-.17,2.86-.33,3.83-.47a5.42,5.42,0,0,0,2.11-.67,1.48,1.48,0,0,0,.66-1.31v-.11a3.28,3.28,0,0,0-1-2.61,4.41,4.41,0,0,0-3-.92,5.33,5.33,0,0,0-3.25.89,4.23,4.23,0,0,0-1.59,2.25l-7-.57a9.57,9.57,0,0,1,2.1-4.31,10.18,10.18,0,0,1,4-2.8,15.42,15.42,0,0,1,5.75-1,17.36,17.36,0,0,1,4.36.54A11.36,11.36,0,0,1,205.22,13a8,8,0,0,1,2.56,2.87,8.63,8.63,0,0,1,.94,4.18V38.44h-7.17V34.66h-.21a7.8,7.8,0,0,1-1.76,2.25,8.21,8.21,0,0,1-2.64,1.51A10.85,10.85,0,0,1,193.37,39Zm2.16-5.22a6.35,6.35,0,0,0,2.95-.67,5.16,5.16,0,0,0,2-1.8,4.73,4.73,0,0,0,.72-2.58V25.8a4.2,4.2,0,0,1-1,.42q-.62.18-1.38.33l-1.53.27L196,27a9.49,9.49,0,0,0-2.33.63,3.73,3.73,0,0,0-1.54,1.14,2.85,2.85,0,0,0-.55,1.79,2.71,2.71,0,0,0,1.12,2.35A4.82,4.82,0,0,0,195.53,33.74Z" transform="translate(0)"/><path class="cls-2" d="M224.65,38.89A10.24,10.24,0,0,1,219,37.28a11,11,0,0,1-4-4.74,18.24,18.24,0,0,1-1.46-7.7A17.78,17.78,0,0,1,215.1,17a10.88,10.88,0,0,1,4-4.67,10.23,10.23,0,0,1,5.51-1.56,8.4,8.4,0,0,1,3.83.78A7.71,7.71,0,0,1,231,13.5a10.3,10.3,0,0,1,1.44,2.25h.23V2.08h7.55V38.44h-7.46V34.07h-.32a9.38,9.38,0,0,1-1.5,2.25,7.6,7.6,0,0,1-2.5,1.84A8.75,8.75,0,0,1,224.65,38.89Zm2.4-6a4.85,4.85,0,0,0,3.1-1,6.39,6.39,0,0,0,1.95-2.81,11.92,11.92,0,0,0,.68-4.25,12,12,0,0,0-.67-4.22,6,6,0,0,0-2-2.77,5,5,0,0,0-3.11-1,4.92,4.92,0,0,0-3.14,1A6.23,6.23,0,0,0,222,20.65a12,12,0,0,0-.66,4.15A12.25,12.25,0,0,0,222,29a6.25,6.25,0,0,0,1.93,2.84A4.82,4.82,0,0,0,227.05,32.87Z" transform="translate(0)"/><path class="cls-2" d="M258.69,39a13.86,13.86,0,0,1-7.15-1.76,12,12,0,0,1-4.64-4.94,15.81,15.81,0,0,1-1.63-7.36,15.88,15.88,0,0,1,1.63-7.39,12,12,0,0,1,4.64-4.94,15.33,15.33,0,0,1,14.3,0,12,12,0,0,1,4.64,4.94,15.88,15.88,0,0,1,1.63,7.39,15.81,15.81,0,0,1-1.63,7.36,12,12,0,0,1-4.64,4.94A13.86,13.86,0,0,1,258.69,39Zm0-5.86A4.66,4.66,0,0,0,261.87,32a6.72,6.72,0,0,0,1.91-2.94,12.94,12.94,0,0,0,.64-4.24,13,13,0,0,0-.64-4.25,6.72,6.72,0,0,0-1.91-2.94,4.68,4.68,0,0,0-3.15-1.09,4.79,4.79,0,0,0-3.18,1.09,6.52,6.52,0,0,0-1.94,2.94,13,13,0,0,0-.65,4.25,12.93,12.93,0,0,0,.65,4.24A6.52,6.52,0,0,0,255.54,32,4.78,4.78,0,0,0,258.72,33.11Z" transform="translate(0)"/><g class="cls-3"><polygon class="cls-4" points="25.08 64.89 38.76 120.72 39.6 120.72 71.65 64.89 84.81 64.89 72.88 136.72 62.57 136.72 71.23 84.74 70.57 84.74 40.75 136.61 32.16 136.61 19.67 84.7 19.01 84.7 10.31 136.72 0 136.72 11.92 64.89 25.08 64.89 25.08 64.89"/></g><path class="cls-4" d="M97,68.18a6.82,6.82,0,0,1,6.91-6.28,6.11,6.11,0,0,1,6.31,6.28,6.81,6.81,0,0,1-6.91,6.24A6.09,6.09,0,0,1,97,68.18ZM95.86,82.84h10.49l-9,53.88H86.88l9-53.88Z" transform="translate(0)"/><path class="cls-4" d="M112.56,110C115.19,93.57,127,82.14,142.2,82.14c12.24,0,19.85,7.23,19.22,18.1H151.21c-.28-5-3.68-9.26-10.35-9.26-8.8,0-15.88,7.26-17.71,18.8-2,11.75,2.53,19.15,11.44,19.15A14.13,14.13,0,0,0,148,119.67h10.24c-3.05,10.49-12.48,18.13-25.18,18.13-15.64,0-23.22-11.54-20.48-27.78Z" transform="translate(0)"/><path class="cls-4" d="M174.59,82.84h10.14l-1.44,8.56h.56A17.15,17.15,0,0,1,199.11,82a29.27,29.27,0,0,1,4.42.25l-1.69,10a24,24,0,0,0-5.43-.63,14.94,14.94,0,0,0-14.91,12.14l-5.4,32.9H165.61l9-53.88Z" transform="translate(0)"/><path class="cls-4" d="M242.54,109.57c1.58-10.14-1.43-18.66-11-18.66-10.13,0-16.55,9-18.23,19.54-1.65,10.1,1.36,18.55,11,18.55,10.07,0,16.49-8.87,18.24-19.43Zm-39.63,0c2.63-16.56,14.17-27.43,29.18-27.43,15.36,0,23.53,11.33,20.8,28.34-2.7,16.45-14.24,27.32-29.18,27.32-15.44,0-23.57-11.33-20.8-28.23Z" transform="translate(0)"/><polygon class="cls-4" points="285.22 64.89 298.9 120.72 299.74 120.72 331.8 64.89 344.95 64.89 333.03 136.72 322.71 136.72 331.38 84.74 330.71 84.74 300.89 136.61 292.3 136.61 279.82 84.7 279.15 84.7 270.45 136.72 260.14 136.72 272.07 64.89 285.22 64.89 285.22 64.89"/><path class="cls-4" d="M382,117.28l1.16-6.94c-1.76,1.51-10,2.42-13.4,2.88-6.18.8-11.61,2.8-12.49,8.41-.84,5.19,2.91,7.86,8.84,7.86,8.73,0,14.84-5.82,15.89-12.21Zm-35,4.21c2.07-12.2,13-14.9,23.37-16.1,9.78-1.15,13.78-1.12,14.44-4.87v-.25c1-6.06-1.68-9.64-8.42-9.64a16,16,0,0,0-14.06,7.5L353,95.89c5.05-9.82,14.8-13.75,24.56-13.75,8.55,0,20.3,3.12,17.7,18.8l-5.92,35.78H379l1.27-7.37h-.42c-2.67,4-8.42,8.56-17.33,8.56-10.24,0-17.25-5.86-15.54-16.42Z" transform="translate(0)"/><path class="cls-4" d="M439.67,97.68c-.63-3.68-2.91-7.23-9.43-7.23-6,0-11.12,3.06-11.79,7.33-.59,3.48,1.51,5.44,7.16,6.84l8.28,2c9.54,2.28,13.68,7,12.41,14.76-1.61,9.65-11.68,16.45-24.55,16.45-12.27,0-19.36-5.4-19.57-14.9l10.38-1.55c.39,5.3,3.89,8,10,8,7,0,12.17-3.4,12.84-7.65.56-3.33-1.37-5.47-6.45-6.66l-8.7-2c-9.75-2.28-13.68-7.4-12.35-15.15,1.58-9.44,11.19-15.75,23.25-15.75,11.76,0,17.44,5.4,18.28,13.86l-9.79,1.68Z" transform="translate(0)"/><path class="cls-4" d="M487,91.26H475.89l-4.95,29.64c-1,6.06,1.93,7.19,5.34,7.19a17.63,17.63,0,0,0,3.71-.46l.57,8.66a23.29,23.29,0,0,1-7.12,1.13c-8.32.14-14.91-4.6-13.26-14.35l5.26-31.81h-7.86L459,82.84h7.86L469,69.93h10.48l-2.14,12.91h11.09L487,91.26Z" transform="translate(0)"/><path class="cls-4" d="M530.72,105.08c1.4-8.24-2.88-14.28-11.05-14.28s-15.36,7.23-16.9,14.28Zm-39.21,5c2.73-16.56,14.52-28,29.53-28,12.24,0,22.62,7.61,19.36,27.08l-.6,3.72H501.43c-1.82,11.71,3.16,16.2,12.63,16.2,6.1,0,11-2.6,13.71-7.68l9.61,1.79c-3.85,8.77-13.08,14.55-24.86,14.55-15.89,0-23.82-10.94-21-27.67Z" transform="translate(0)"/><path class="cls-4" d="M555.61,82.84h10.14l-1.44,8.56h.56A17.15,17.15,0,0,1,580.13,82a29.27,29.27,0,0,1,4.42.25l-1.69,10a24,24,0,0,0-5.43-.63,15,15,0,0,0-14.91,12.14l-5.4,32.9H546.63l9-53.88Z" transform="translate(0)"/><path class="cls-4" d="M621.14,97.68c-.63-3.68-2.91-7.23-9.43-7.23-6,0-11.12,3.06-11.79,7.33-.59,3.48,1.51,5.44,7.16,6.84l8.28,2c9.54,2.28,13.67,7,12.41,14.76-1.61,9.65-11.68,16.45-24.55,16.45-12.27,0-19.36-5.4-19.57-14.9L594,121.35c.38,5.3,3.89,8,10,8,7,0,12.17-3.4,12.84-7.65.56-3.33-1.37-5.47-6.45-6.66l-8.7-2c-9.75-2.28-13.68-7.4-12.35-15.15,1.58-9.44,11.19-15.75,23.25-15.75,11.76,0,17.44,5.4,18.28,13.86l-9.79,1.68Z" transform="translate(0)"/><path class="cls-4" d="M646.21,76.1l2.53,4.71h-2L644.3,76.1Zm-5.9,4.71V70.68h4.86a3.3,3.3,0,0,1,1.49.36,3,3,0,0,1,1.67,2.81,3.23,3.23,0,0,1-.49,1.78,3.41,3.41,0,0,1-1.24,1.15,3.29,3.29,0,0,1-1.54.39h-3.77V75.79h3.3a1.8,1.8,0,0,0,1.81-1.94,1.59,1.59,0,0,0-.55-1.37,2,2,0,0,0-1.22-.41h-2.55v8.74Zm3.72,4a8.57,8.57,0,0,0,4.49-1.21,9.28,9.28,0,0,0,3.24-3.23,9,9,0,0,0,0-9,9.2,9.2,0,0,0-3.24-3.23,9,9,0,0,0-9,0,9.09,9.09,0,0,0-3.23,3.23,9,9,0,0,0,0,9,9.17,9.17,0,0,0,3.23,3.23,8.58,8.58,0,0,0,4.5,1.21Zm0,2a10.67,10.67,0,0,1-4.27-.85,11.07,11.07,0,0,1-3.51-2.36,11.19,11.19,0,0,1-2.36-3.5,11.15,11.15,0,0,1,0-8.54,11.09,11.09,0,0,1,5.87-5.87,11.15,11.15,0,0,1,8.54,0,11.05,11.05,0,0,1,3.5,2.37,10.92,10.92,0,0,1,2.36,3.5,11.15,11.15,0,0,1,0,8.54A11.05,11.05,0,0,1,648.3,86a10.71,10.71,0,0,1-4.27.85Z" transform="translate(0)"/></g></g></svg>