<?xml version="1.0" standalone="no"?>
<!DOCTYPE svg PUBLIC "-//W3C//DTD SVG 20010904//EN"
 "http://www.w3.org/TR/2001/REC-SVG-20010904/DTD/svg10.dtd">
<svg version="1.0" xmlns="http://www.w3.org/2000/svg"
 width="528.000000pt" height="128.000000pt" viewBox="0 0 528.000000 128.000000"
 preserveAspectRatio="xMidYMid meet">

<g transform="translate(0.000000,128.000000) scale(0.100000,-0.100000)"
fill="#000000" stroke="none">
<path d="M3077 1273 c-4 -3 -7 -134 -7 -290 l0 -283 55 0 55 0 0 139 c0 77 3
146 6 155 9 24 68 40 96 25 13 -7 26 -17 30 -23 4 -6 8 -75 8 -153 l0 -143 55
0 55 0 0 130 c0 229 -23 275 -135 275 -46 0 -68 -5 -82 -17 -11 -10 -23 -18
-26 -18 -4 0 -7 47 -7 105 l0 105 -48 0 c-27 0 -52 -3 -55 -7z"/>
<path d="M3890 990 l0 -290 55 0 55 0 0 290 0 290 -55 0 -55 0 0 -290z"/>
<path d="M5123 1246 c-23 -20 -28 -32 -28 -71 0 -39 5 -51 28 -71 18 -15 41
-24 62 -24 21 0 44 9 62 24 23 20 28 32 28 71 0 39 -5 51 -28 71 -18 15 -41
24 -62 24 -21 0 -44 -9 -62 -24z m111 -7 c21 -16 26 -29 26 -64 0 -35 -5 -48
-26 -64 -15 -12 -37 -21 -49 -21 -12 0 -34 9 -49 21 -21 16 -26 29 -26 64 0
35 5 48 26 64 15 12 37 21 49 21 12 0 34 -9 49 -21z"/>
<path d="M5151 1173 c1 -41 3 -50 8 -33 6 23 12 26 41 22 6 -1 10 -11 10 -22
0 -11 4 -20 9 -20 10 0 7 32 -4 49 -3 5 -1 12 5 16 20 12 -9 45 -40 45 -30 0
-30 0 -29 -57z m57 30 c5 -17 -26 -29 -40 -15 -6 6 -7 15 -3 22 9 14 37 9 43
-7z"/>
<path d="M40 975 c0 -268 0 -275 20 -275 19 0 20 7 20 238 l1 237 43 -100 c23
-55 69 -162 101 -238 68 -163 81 -170 122 -72 97 234 165 391 171 397 4 4 6
-99 4 -227 l-4 -235 26 0 26 0 -2 273 -3 272 -30 0 c-29 0 -31 -3 -130 -237
-54 -131 -102 -238 -105 -238 -3 0 -50 108 -105 240 -96 232 -100 240 -127
240 l-28 0 0 -275z"/>
<path d="M674 1235 c-4 -9 -2 -21 4 -27 16 -16 47 -5 47 17 0 26 -42 34 -51
10z"/>
<path d="M1840 976 l0 -276 138 0 c158 0 207 15 242 72 30 50 27 128 -6 167
-14 17 -32 31 -40 31 -21 0 -17 7 17 38 40 36 51 108 24 158 -31 58 -87 77
-242 82 l-133 5 0 -277z m260 159 c38 -35 12 -113 -37 -116 -10 0 -39 -3 -65
-5 l-48 -5 0 77 0 77 65 -6 c43 -3 73 -11 85 -22z m4 -216 c33 -26 36 -79 6
-109 -16 -16 -33 -20 -90 -20 l-70 0 0 75 0 75 64 0 c49 0 69 -5 90 -21z"/>
<path d="M693 1103 c-10 -4 -13 -54 -13 -204 0 -192 1 -199 20 -199 19 0 20 7
20 199 0 110 -3 202 -7 204 -5 2 -14 2 -20 0z"/>
<path d="M894 1091 c-46 -28 -71 -66 -85 -125 -23 -102 5 -199 72 -249 34 -24
106 -33 152 -18 66 22 129 121 77 121 -12 0 -20 -7 -20 -16 0 -8 -13 -29 -29
-45 -25 -24 -37 -29 -81 -29 -97 0 -135 55 -129 188 5 93 24 128 82 151 30 11
43 11 79 0 35 -12 47 -22 63 -56 13 -27 27 -42 39 -43 16 0 17 5 12 32 -7 36
-38 73 -78 94 -39 20 -117 18 -154 -5z"/>
<path d="M1293 1090 c-18 -11 -33 -25 -34 -32 0 -7 -5 -1 -11 15 -6 16 -17 27
-29 27 -18 0 -19 -10 -19 -200 l0 -200 25 0 25 0 0 151 0 151 34 34 c26 26 42
34 70 34 29 0 36 4 36 20 0 27 -53 27 -97 0z"/>
<path d="M1515 1096 c-39 -17 -80 -65 -95 -112 -16 -47 -8 -159 13 -201 49
-95 188 -123 268 -56 45 39 69 96 69 171 0 94 -35 163 -102 198 -34 18 -113
17 -153 0z m144 -45 c62 -44 86 -128 62 -217 -39 -146 -223 -141 -262 6 -41
155 88 291 200 211z"/>
<path d="M2370 1088 c-43 -22 -86 -80 -74 -100 7 -11 104 -10 104 1 0 20 33
41 64 41 41 0 56 -15 56 -57 l0 -33 -62 0 c-105 0 -171 -49 -171 -127 0 -98
109 -153 206 -104 29 15 37 16 37 5 0 -10 14 -14 53 -14 l52 0 -3 153 c-3 105
-8 162 -18 183 -33 71 -155 97 -244 52z m150 -247 c0 -43 -13 -58 -59 -67 -23
-5 -37 -2 -51 11 -45 41 -8 95 65 95 l45 0 0 -39z"/>
<path d="M2785 1096 c-67 -30 -105 -102 -105 -198 1 -163 127 -253 265 -189
52 24 74 50 82 95 l6 36 -47 0 c-40 0 -48 -4 -58 -25 -6 -13 -24 -29 -40 -34
-39 -14 -85 9 -95 47 -12 40 -8 135 6 160 28 52 102 46 129 -11 11 -23 19 -27
58 -27 42 0 44 1 44 29 0 38 -38 92 -80 113 -41 21 -122 23 -165 4z"/>
<path d="M3585 1097 c-121 -55 -152 -262 -53 -354 56 -53 159 -68 233 -34 62
28 71 44 44 80 l-22 30 -26 -20 c-39 -28 -81 -33 -121 -12 -34 18 -64 59 -54
75 3 4 61 8 130 8 l124 0 0 53 c0 62 -31 131 -73 161 -34 25 -138 33 -182 13z
m138 -99 c9 -11 17 -29 17 -39 0 -17 -8 -19 -80 -19 l-80 0 13 33 c24 58 91
71 130 25z"/>
<path d="M4150 1088 c-60 -31 -100 -106 -100 -188 0 -81 40 -156 99 -187 114
-59 242 -6 277 115 26 89 6 178 -53 234 -57 54 -147 64 -223 26z m129 -73 c46
-23 65 -111 40 -184 -27 -76 -135 -67 -155 14 -3 14 -4 51 -2 82 4 46 10 61
32 80 32 27 47 28 85 8z"/>
<path d="M4616 1089 c-24 -19 -31 -18 -27 4 0 4 -24 7 -54 7 l-55 0 0 -200 0
-200 55 0 55 0 0 133 c0 153 5 164 79 174 l41 6 0 48 c0 49 0 49 -34 49 -19 0
-45 -9 -60 -21z"/>
<path d="M4814 1096 c-47 -21 -74 -62 -74 -111 0 -36 5 -48 34 -72 20 -18 59
-37 99 -48 77 -21 104 -43 88 -73 -21 -40 -107 -36 -126 6 -9 20 -39 27 -102
21 -17 -1 0 -46 28 -75 75 -77 251 -67 294 16 37 71 -5 147 -96 169 -93 24
-114 35 -114 61 0 35 44 58 80 42 15 -7 29 -21 32 -32 5 -17 14 -20 59 -20 61
0 67 10 37 61 -36 60 -161 89 -239 55z"/>
<path d="M1379 431 c-16 -17 -29 -40 -29 -54 0 -38 -10 -57 -31 -57 -14 0 -19
-7 -19 -30 0 -23 5 -30 19 -30 26 0 32 -22 31 -115 -2 -145 -5 -135 40 -135
l40 0 0 125 0 125 30 0 c27 0 30 3 30 30 0 27 -3 30 -31 30 -28 0 -30 2 -27
33 2 26 9 34 36 42 26 7 32 14 32 37 0 27 -2 28 -46 28 -37 0 -51 -5 -75 -29z"/>
<path d="M1175 434 c-20 -20 -16 -43 10 -59 28 -18 65 -2 65 28 0 44 -43 62
-75 31z"/>
<path d="M1552 438 c-7 -7 -12 -22 -12 -35 0 -37 60 -51 82 -19 27 40 -36 88
-70 54z"/>
<path d="M110 424 c-52 -23 -79 -52 -95 -108 -30 -101 -9 -224 46 -270 56 -47
141 -55 211 -19 32 15 55 47 68 92 l9 31 -42 0 c-37 0 -44 -4 -57 -33 -30 -65
-125 -58 -151 11 -6 15 -9 65 -7 110 3 77 5 86 31 108 37 31 81 31 112 -1 14
-13 25 -31 25 -40 0 -11 11 -15 44 -15 l45 0 -9 31 c-15 51 -39 79 -83 100
-50 22 -100 24 -147 3z"/>
<path d="M978 363 c-2 -31 -7 -39 -25 -41 -18 -3 -23 -10 -23 -33 0 -24 4 -29
25 -29 l25 0 0 -101 c0 -55 5 -109 11 -120 14 -27 56 -42 96 -34 28 5 33 10
33 35 0 24 -5 29 -27 32 l-28 3 -3 93 -3 92 26 0 c21 0 25 5 25 30 0 25 -4 30
-25 30 -22 0 -25 4 -25 40 0 40 0 40 -39 40 -39 0 -40 -1 -43 -37z"/>
<path d="M2350 360 c0 -36 -2 -40 -26 -40 -22 0 -25 -4 -22 -27 2 -20 9 -29
26 -31 21 -3 22 -7 22 -103 0 -55 4 -109 10 -119 12 -23 73 -44 106 -36 18 5
24 13 24 36 0 24 -5 29 -27 32 l-28 3 -3 92 -3 92 28 3 c27 3 29 8 24 48 0 6
-12 10 -26 10 -22 0 -25 4 -25 40 l0 40 -40 0 -40 0 0 -40z"/>
<path d="M470 313 c-71 -36 -99 -145 -61 -230 38 -82 167 -107 240 -45 20 17
20 17 1 40 -18 22 -21 23 -42 8 -46 -33 -128 -7 -128 39 0 12 18 15 101 15
l101 0 -7 48 c-4 26 -12 58 -18 71 -30 61 -122 87 -187 54z m108 -65 c5 -7 12
-22 14 -33 3 -18 -3 -20 -52 -20 -43 0 -55 4 -58 16 -7 38 70 68 96 37z"/>
<path d="M833 315 c-14 -10 -24 -12 -28 -5 -3 5 -22 10 -41 10 l-34 0 0 -155
0 -155 40 0 39 0 3 113 3 112 43 9 c40 9 42 11 42 48 0 33 -3 38 -23 38 -12 0
-32 -7 -44 -15z"/>
<path d="M1763 315 c-89 -38 -108 -205 -32 -276 72 -67 202 -36 224 54 7 26 5
27 -28 27 -26 0 -39 -6 -51 -25 -20 -30 -65 -34 -89 -7 -23 25 -24 134 -1 156
25 26 72 20 86 -9 9 -21 18 -25 51 -25 38 0 39 1 32 28 -19 76 -111 113 -192
77z"/>
<path d="M2085 323 c-35 -9 -63 -34 -74 -64 l-10 -29 42 0 c31 0 45 5 55 20
24 39 82 19 82 -27 0 -20 -5 -23 -39 -23 -84 0 -141 -41 -141 -102 0 -74 82
-118 151 -83 23 12 34 14 37 6 2 -6 23 -11 47 -11 l44 0 -10 32 c-5 18 -9 76
-9 129 0 83 -3 98 -21 118 -35 37 -91 49 -154 34z m95 -202 c0 -37 -20 -53
-62 -49 -26 2 -34 8 -36 27 -5 31 21 51 65 51 30 0 33 -3 33 -29z"/>
<path d="M2605 315 c-61 -32 -91 -102 -79 -182 18 -118 161 -171 256 -93 l23
19 -22 22 c-20 20 -22 21 -44 5 -34 -23 -81 -20 -107 7 -39 42 -30 47 78 47
l100 0 0 28 c0 49 -19 98 -49 126 -37 36 -110 46 -156 21z m111 -80 c22 -34
11 -45 -52 -45 -59 0 -66 9 -38 48 21 31 69 30 90 -3z"/>
<path d="M1170 165 l0 -155 40 0 40 0 0 155 0 155 -40 0 -40 0 0 -155z"/>
<path d="M1540 165 l0 -155 40 0 40 0 0 155 0 155 -40 0 -40 0 0 -155z"/>
</g>
</svg>
