<svg xmlns="http://www.w3.org/2000/svg" xmlns:xlink="http://www.w3.org/1999/xlink" viewBox="0 0 739.54 132.07"><defs><style>.cls-1{fill:none;}.cls-2{fill:#002c2b;}.cls-3{clip-path:url(#clip-path);}.cls-4{fill:#02262b;}</style><clipPath id="clip-path" transform="translate(0 0)"><rect class="cls-1" x="0.12" width="739.42" height="76"/></clipPath></defs><g id="Layer_2" data-name="Layer 2"><g id="Layer_1-2" data-name="Layer 1"><path class="cls-2" d="M33.25,107.9H25.47a7.67,7.67,0,0,0-.87-2.69,7,7,0,0,0-1.69-2,7.32,7.32,0,0,0-2.37-1.28,9.33,9.33,0,0,0-2.9-.44,8.68,8.68,0,0,0-4.92,1.39,9,9,0,0,0-3.25,4,16.09,16.09,0,0,0-1.15,6.44,16.31,16.31,0,0,0,1.16,6.53,8.85,8.85,0,0,0,3.26,4,8.83,8.83,0,0,0,4.85,1.34,9.69,9.69,0,0,0,2.86-.4,7.73,7.73,0,0,0,2.36-1.2,7,7,0,0,0,1.71-1.93,7.63,7.63,0,0,0,.95-2.59l7.78,0a14,14,0,0,1-1.5,4.82,14.38,14.38,0,0,1-3.22,4.14A15,15,0,0,1,23.74,131,17.67,17.67,0,0,1,17.46,132a17.09,17.09,0,0,1-8.69-2.2,15.56,15.56,0,0,1-6-6.37,21.37,21.37,0,0,1-2.21-10.1,21.16,21.16,0,0,1,2.24-10.12,15.63,15.63,0,0,1,6.07-6.37,17.12,17.12,0,0,1,8.63-2.19,18.52,18.52,0,0,1,5.87.89,14.8,14.8,0,0,1,4.8,2.58,13.5,13.5,0,0,1,3.42,4.14A15.68,15.68,0,0,1,33.25,107.9Z" transform="translate(0 0)"/><path class="cls-2" d="M51.06,132.07a14.49,14.49,0,0,1-7.24-1.71,11.65,11.65,0,0,1-4.66-4.87,17.73,17.73,0,0,1,0-14.85,12,12,0,0,1,4.61-5,13.3,13.3,0,0,1,7-1.78,14.58,14.58,0,0,1,5,.86,11.28,11.28,0,0,1,6.81,6.91,17.28,17.28,0,0,1,1,6.08v2.08h-23v-4.69H56.45a5.71,5.71,0,0,0-.71-2.89,5,5,0,0,0-2-2,5.7,5.7,0,0,0-2.9-.72,5.8,5.8,0,0,0-3.05.79,5.66,5.66,0,0,0-2.07,2.11A6.07,6.07,0,0,0,45,115.4v4.45a7.5,7.5,0,0,0,.76,3.5,5.34,5.34,0,0,0,2.14,2.27,6.35,6.35,0,0,0,3.28.8,7.09,7.09,0,0,0,2.31-.35A4.75,4.75,0,0,0,55.28,125a4.55,4.55,0,0,0,1.14-1.74l7,.47a9.52,9.52,0,0,1-2.17,4.39A11,11,0,0,1,57,131,15.92,15.92,0,0,1,51.06,132.07Z" transform="translate(0 0)"/><path class="cls-2" d="M68.51,131.54V104.27h7.33V109h.29a7.05,7.05,0,0,1,2.5-3.84,6.61,6.61,0,0,1,4.05-1.31,10.68,10.68,0,0,1,1.22.08,8,8,0,0,1,1.16.19v6.71a10.66,10.66,0,0,0-1.48-.28,13.71,13.71,0,0,0-1.72-.13,6,6,0,0,0-3,.72,5.35,5.35,0,0,0-2.06,2,5.64,5.64,0,0,0-.76,3v15.43Z" transform="translate(0 0)"/><path class="cls-2" d="M104.82,104.27V110H88.4v-5.68Zm-12.7-6.54h7.57v25.43a3.28,3.28,0,0,0,.32,1.62,1.71,1.71,0,0,0,.89.81,3.73,3.73,0,0,0,1.34.23,5.54,5.54,0,0,0,1.07-.1l.82-.15,1.19,5.63c-.38.12-.92.26-1.6.42a13.77,13.77,0,0,1-2.5.29,11.4,11.4,0,0,1-4.79-.73,6.66,6.66,0,0,1-3.19-2.59,7.92,7.92,0,0,1-1.12-4.44Z" transform="translate(0 0)"/><path class="cls-2" d="M113.56,100.75a4.11,4.11,0,0,1-2.9-1.13,3.62,3.62,0,0,1,0-5.4,4.29,4.29,0,0,1,5.78,0,3.64,3.64,0,0,1,0,5.4A4.07,4.07,0,0,1,113.56,100.75Zm-3.82,30.79V104.27h7.56v27.27Z" transform="translate(0 0)"/><path class="cls-2" d="M138,104.27V110H121.17v-5.68Zm-13,27.27V102.29a9.42,9.42,0,0,1,1.17-4.91,7.28,7.28,0,0,1,3.19-2.93,10.45,10.45,0,0,1,4.59-1,17.41,17.41,0,0,1,3.19.27,17.86,17.86,0,0,1,2.16.48L138,99.9a8.25,8.25,0,0,0-1.09-.27,7.39,7.39,0,0,0-1.33-.12,2.91,2.91,0,0,0-2.32.77,3.21,3.21,0,0,0-.66,2.16v29.1Z" transform="translate(0 0)"/><path class="cls-2" d="M146.44,100.75a4.11,4.11,0,0,1-2.9-1.13,3.64,3.64,0,0,1,0-5.4,4.29,4.29,0,0,1,5.78,0,3.64,3.64,0,0,1,0,5.4A4.07,4.07,0,0,1,146.44,100.75Zm-3.82,30.79V104.27h7.56v27.27Z" transform="translate(0 0)"/><path class="cls-2" d="M168.54,132.07a13.88,13.88,0,0,1-7.2-1.78,11.9,11.9,0,0,1-4.61-5,17.46,17.46,0,0,1,0-14.67,12,12,0,0,1,4.63-5,13.71,13.71,0,0,1,7.14-1.78,14.13,14.13,0,0,1,6.25,1.3,10.32,10.32,0,0,1,4.24,3.64,10.62,10.62,0,0,1,1.72,5.5h-7.13a5.6,5.6,0,0,0-1.59-3.29,4.61,4.61,0,0,0-3.37-1.26,5.08,5.08,0,0,0-3.06,1,6.14,6.14,0,0,0-2,2.77,11.64,11.64,0,0,0-.73,4.38,12.15,12.15,0,0,0,.72,4.44,6.08,6.08,0,0,0,2,2.79,5.07,5.07,0,0,0,3.07,1,5,5,0,0,0,2.34-.54,4.55,4.55,0,0,0,1.72-1.55,6,6,0,0,0,.9-2.46h7.13A11.14,11.14,0,0,1,179,127a10.37,10.37,0,0,1-4.18,3.7A13.94,13.94,0,0,1,168.54,132.07Z" transform="translate(0 0)"/><path class="cls-2" d="M193.37,132.05a11.33,11.33,0,0,1-4.66-.91,7.39,7.39,0,0,1-3.22-2.72,8,8,0,0,1-1.18-4.5,7.93,7.93,0,0,1,.84-3.82,6.61,6.61,0,0,1,2.27-2.48,11,11,0,0,1,3.27-1.42,24.79,24.79,0,0,1,3.87-.68c1.58-.16,2.86-.32,3.83-.47a5.44,5.44,0,0,0,2.11-.66,1.5,1.5,0,0,0,.66-1.32V113a3.28,3.28,0,0,0-1-2.61,4.42,4.42,0,0,0-3-.93,5.33,5.33,0,0,0-3.25.9,4.25,4.25,0,0,0-1.59,2.24l-7-.56a9.51,9.51,0,0,1,2.09-4.31,10.19,10.19,0,0,1,4-2.8,15.46,15.46,0,0,1,5.75-1,17.83,17.83,0,0,1,4.36.53,11.7,11.7,0,0,1,3.71,1.65,8.12,8.12,0,0,1,2.56,2.87,8.69,8.69,0,0,1,.95,4.18v18.4h-7.18v-3.78h-.21a7.63,7.63,0,0,1-1.76,2.24,7.76,7.76,0,0,1-2.64,1.51A10.81,10.81,0,0,1,193.37,132.05Zm2.16-5.22a6.32,6.32,0,0,0,2.95-.66,5.26,5.26,0,0,0,2-1.81,4.67,4.67,0,0,0,.72-2.57V118.9a3.83,3.83,0,0,1-1,.41,12.67,12.67,0,0,1-1.38.34q-.76.15-1.53.27l-1.38.2a9.63,9.63,0,0,0-2.33.62,3.77,3.77,0,0,0-1.54,1.15,2.82,2.82,0,0,0-.55,1.78,2.73,2.73,0,0,0,1.12,2.36A4.89,4.89,0,0,0,195.53,126.83Z" transform="translate(0 0)"/><path class="cls-2" d="M229.11,104.27V110H212.68v-5.68Zm-12.7-6.54H224v25.43a3.28,3.28,0,0,0,.32,1.62,1.71,1.71,0,0,0,.89.81,3.69,3.69,0,0,0,1.34.23,5.54,5.54,0,0,0,1.07-.1l.82-.15,1.19,5.63c-.38.12-.92.26-1.6.42a13.78,13.78,0,0,1-2.51.29,11.38,11.38,0,0,1-4.78-.73,6.66,6.66,0,0,1-3.19-2.59,7.92,7.92,0,0,1-1.12-4.44Z" transform="translate(0 0)"/><path class="cls-2" d="M246.17,132.07a14.46,14.46,0,0,1-7.23-1.71,11.67,11.67,0,0,1-4.67-4.87,17.73,17.73,0,0,1,0-14.85,12,12,0,0,1,4.61-5,13.33,13.33,0,0,1,7-1.78,14.48,14.48,0,0,1,5,.86,11.56,11.56,0,0,1,4.09,2.58,11.82,11.82,0,0,1,2.72,4.33,17.27,17.27,0,0,1,1,6.08v2.08h-23v-4.69h15.91a5.81,5.81,0,0,0-.71-2.89,5,5,0,0,0-2-2,6.24,6.24,0,0,0-6,.07,5.66,5.66,0,0,0-2.07,2.11,6,6,0,0,0-.76,2.94v4.45a7.62,7.62,0,0,0,.75,3.5,5.4,5.4,0,0,0,2.14,2.27,6.39,6.39,0,0,0,3.29.8,7,7,0,0,0,2.3-.35,4.79,4.79,0,0,0,1.8-1.07,4.53,4.53,0,0,0,1.13-1.74l7,.47a9.54,9.54,0,0,1-2.18,4.39,10.84,10.84,0,0,1-4.22,2.91A15.93,15.93,0,0,1,246.17,132.07Z" transform="translate(0 0)"/><g class="cls-3"><polygon class="cls-4" points="25.08 2.98 38.76 58.82 39.6 58.82 71.65 2.98 84.81 2.98 72.88 74.81 62.57 74.81 71.23 22.83 70.57 22.83 40.75 74.71 32.16 74.71 19.67 22.8 19.01 22.8 10.31 74.81 0 74.81 11.92 2.98 25.08 2.98 25.08 2.98"/></g><path class="cls-4" d="M97,6.28A6.81,6.81,0,0,1,103.86,0a6.1,6.1,0,0,1,6.31,6.28,6.81,6.81,0,0,1-6.91,6.24A6.09,6.09,0,0,1,97,6.28ZM95.86,20.94h10.49l-9,53.87H86.88l9-53.87Z" transform="translate(0 0)"/><path class="cls-4" d="M112.56,48.12C115.19,31.67,127,20.24,142.2,20.24c12.24,0,19.85,7.22,19.22,18.1H151.21c-.28-5.06-3.68-9.26-10.35-9.26-8.8,0-15.88,7.26-17.71,18.8-2,11.75,2.53,19.14,11.44,19.14A14.12,14.12,0,0,0,148,57.77h10.24C155.17,68.25,145.74,75.9,133,75.9c-15.64,0-23.22-11.54-20.48-27.78Z" transform="translate(0 0)"/><path class="cls-4" d="M174.59,20.94h10.14l-1.44,8.56h.56a17.15,17.15,0,0,1,15.26-9.37,29.27,29.27,0,0,1,4.42.25l-1.69,10a23.47,23.47,0,0,0-5.43-.63A14.93,14.93,0,0,0,181.5,41.91l-5.4,32.9H165.61l9-53.87Z" transform="translate(0 0)"/><path class="cls-4" d="M242.54,47.67c1.58-10.14-1.43-18.66-11-18.66-10.13,0-16.55,9-18.24,19.53-1.64,10.1,1.37,18.56,11.05,18.56,10.07,0,16.49-8.88,18.24-19.43Zm-39.63,0c2.63-16.56,14.17-27.43,29.18-27.43,15.36,0,23.53,11.33,20.8,28.34C250.19,65,238.65,75.9,223.71,75.9c-15.44,0-23.57-11.33-20.8-28.23Z" transform="translate(0 0)"/><path class="cls-4" d="M292.3,34.06c7.3,0,13.75-4.46,14.77-11.37,1.05-6-2.28-10.48-10.87-10.48H281.4l-3.58,21.85Zm-4.13,31.46c10.37,0,15.29-4.53,16.34-10.56,1.05-6.84-3.37-12.45-12.1-12.45h-16l-3.86,23ZM272.07,3h26.3c15.29,0,21.29,8.24,19.47,18.87-1.51,9-7.75,13.47-14.52,15.15l-.14.7c7,.39,13.78,6.67,12,17.79-1.85,11-10.8,19.32-27.5,19.32H260.14L272.07,3Z" transform="translate(0 0)"/><path class="cls-4" d="M358,55.38l1.16-6.94c-1.75,1.5-10,2.42-13.4,2.87-6.17.81-11.61,2.81-12.48,8.42-.85,5.19,2.91,7.86,8.83,7.86,8.74,0,14.84-5.83,15.89-12.21Zm-35,4.21c2.07-12.21,12.94-14.91,23.36-16.1,9.78-1.16,13.78-1.12,14.45-4.87v-.25c1-6.07-1.69-9.64-8.42-9.64a16,16,0,0,0-14.07,7.5L328.88,34c5.05-9.82,14.8-13.75,24.55-13.75,8.55,0,20.31,3.12,17.71,18.8l-5.93,35.77H355l1.26-7.36h-.42c-2.66,4-8.41,8.55-17.33,8.55-10.24,0-17.25-5.85-15.53-16.41Z" transform="translate(0 0)"/><path class="cls-4" d="M380.28,48.12c2.63-16.45,14.42-27.88,29.64-27.88,12.24,0,19.85,7.22,19.22,18.1H418.93c-.28-5.06-3.68-9.26-10.35-9.26-8.8,0-15.88,7.26-17.71,18.8C388.87,59.63,393.4,67,402.31,67a14.11,14.11,0,0,0,13.39-9.25h10.24c-3.05,10.48-12.48,18.13-25.18,18.13-15.64,0-23.22-11.54-20.48-27.78Z" transform="translate(0 0)"/><path class="cls-4" d="M443.86,74.81H433.37L445.3,3h10.34l-4.42,26.73h.67c3.4-5.86,9.12-9.47,17.53-9.47,11.05,0,17.29,6.84,15.12,20.31l-5.75,34.26H468.3l5.48-33c1.29-7.89-2.29-12.49-9.44-12.49-7.47,0-13.72,4.91-15.22,13.51l-5.26,32Z" transform="translate(0 0)"/><path class="cls-4" d="M533.11,43.18c1.4-8.25-2.88-14.28-11.05-14.28s-15.36,7.23-16.9,14.28Zm-39.22,5c2.74-16.56,14.52-28,29.54-28,12.24,0,22.62,7.61,19.36,27.07l-.6,3.72H503.82C502,62.75,507,67.24,516.45,67.24c6.1,0,10.94-2.6,13.71-7.69l9.61,1.79c-3.86,8.77-13.08,14.56-24.86,14.56-15.89,0-23.82-10.94-21-27.67Z" transform="translate(0 0)"/><polygon class="cls-4" points="559.51 74.81 549.02 74.81 560.94 2.98 571.43 2.98 559.51 74.81 559.51 74.81"/><path class="cls-4" d="M614.4,47.67C616,37.53,613,29,603.35,29c-10.14,0-16.56,9-18.24,19.53-1.65,10.1,1.37,18.56,11,18.56,10.07,0,16.49-8.88,18.24-19.43Zm-39.63,0C577.4,31.11,588.93,20.24,604,20.24c15.36,0,23.53,11.33,20.79,28.34C622.05,65,610.51,75.9,595.56,75.9c-15.43,0-23.56-11.33-20.79-28.23Z" transform="translate(0 0)"/><path class="cls-4" d="M640.14,20.94h10.13l-1.44,8.56h.57a17.12,17.12,0,0,1,15.25-9.37,29.19,29.19,0,0,1,4.42.25l-1.68,10a23.65,23.65,0,0,0-5.44-.63A14.94,14.94,0,0,0,647,41.91l-5.39,32.9H631.16l9-53.87Z" transform="translate(0 0)"/><path class="cls-4" d="M705.66,35.77c-.63-3.68-2.91-7.22-9.43-7.22-6,0-11.12,3.05-11.78,7.33-.6,3.47,1.5,5.44,7.15,6.84l8.28,2c9.54,2.28,13.68,7,12.41,14.77-1.61,9.64-11.67,16.45-24.55,16.45-12.27,0-19.36-5.4-19.57-14.91l10.38-1.54c.39,5.3,3.9,8,10,8,7,0,12.18-3.41,12.84-7.65.56-3.33-1.37-5.47-6.45-6.66l-8.7-2c-9.75-2.28-13.68-7.4-12.35-15.16,1.58-9.43,11.19-15.74,23.26-15.74,11.75,0,17.43,5.4,18.27,13.85l-9.79,1.68Z" transform="translate(0 0)"/><path class="cls-4" d="M730.73,14.18l2.53,4.71h-2l-2.46-4.71Zm-5.9,4.71V8.75h4.86a3.19,3.19,0,0,1,1.49.37,3.05,3.05,0,0,1,1.19,1.07,3,3,0,0,1,.48,1.73,3.23,3.23,0,0,1-.49,1.78,3.41,3.41,0,0,1-1.24,1.15,3.3,3.3,0,0,1-1.54.4h-3.76V13.86h3.29a1.82,1.82,0,0,0,1.82-1.94,1.59,1.59,0,0,0-.56-1.37,2,2,0,0,0-1.22-.41H726.6v8.75Zm3.72,4A8.54,8.54,0,0,0,733,21.67a9.12,9.12,0,0,0,3.24-3.23,8.58,8.58,0,0,0,1.21-4.5,8.63,8.63,0,0,0-1.21-4.5A9.28,9.28,0,0,0,733,6.21a9,9,0,0,0-9,0,9.25,9.25,0,0,0-3.23,3.23,8.63,8.63,0,0,0-1.21,4.5,8.58,8.58,0,0,0,1.21,4.5,9.09,9.09,0,0,0,3.23,3.23,8.58,8.58,0,0,0,4.5,1.21Zm0,2.05a11,11,0,0,1-11-11,10.88,10.88,0,0,1,.85-4.27,11.17,11.17,0,0,1,2.37-3.5,10.92,10.92,0,0,1,3.5-2.36,11.15,11.15,0,0,1,8.54,0,10.92,10.92,0,0,1,3.5,2.36,11.14,11.14,0,0,1,2.36,3.5,11,11,0,0,1,0,8.54,10.93,10.93,0,0,1-10.13,6.72Z" transform="translate(0 0)"/></g></g></svg>