<svg xmlns="http://www.w3.org/2000/svg" viewBox="0 0 563.59 278.14" role="img" aria-label="MicroMasters Certificate Logo">
    <title class="micromasters-logo-title">MicroMasters Certificate Logo</title>
    <path d="M125.73,288.43q-11.68,0-18.39,7.48t-6.71,20.48q0,13.3,6.33,20.65t18.1,7.35a49,49,0,0,0,14.36-2v3.82A46.85,46.85,0,0,1,124,348.37q-13.08,0-20.6-8.45T95.91,316.3a37,37,0,0,1,3.59-16.69,26,26,0,0,1,10.32-11.15,30.49,30.49,0,0,1,15.65-3.93,37.58,37.58,0,0,1,16.27,3.4L140,291.83A31.51,31.51,0,0,0,125.73,288.43Z" transform="translate(-93.65 -70.23)"/>
    <path d="M191.55,347.52H157.61V285.42h33.94v4H161.94V312.9h28v4h-28v26.64h29.61Z" transform="translate(-93.65 -70.23)"/>
    <path d="M214.3,320.46v27.06H210V285.42h14.78q11.55,0,17.08,4.27t5.52,12.85a16.8,16.8,0,0,1-3.29,10.54q-3.29,4.29-10,6.16l16.86,28.29h-5.18l-16-27.06Zm0-3.74h11.85q7.86,0,12.19-3.5t4.33-10.34q0-7.09-4.25-10.32t-13.85-3.23H214.3Z" transform="translate(-93.65 -70.23)"/>
    <path d="M282.2,347.52h-4.37v-58H257.64v-4.08h44.73v4.08H282.2Z" transform="translate(-93.65 -70.23)"/>
    <path d="M315.94,347.52V285.42h4.33v62.11Z" transform="translate(-93.65 -70.23)"/>
    <path d="M346.54,347.52h-4.33V285.42h34v4H346.54v26.34h28v4h-28Z" transform="translate(-93.65 -70.23)"/>
    <path d="M390.23,347.52V285.42h4.33v62.11Z" transform="translate(-93.65 -70.23)"/>
    <path d="M443,288.43q-11.68,0-18.39,7.48t-6.71,20.48q0,13.3,6.33,20.65t18.1,7.35a49,49,0,0,0,14.36-2v3.82a46.85,46.85,0,0,1-15.38,2.17q-13.08,0-20.6-8.45t-7.52-23.62a37,37,0,0,1,3.59-16.69,26,26,0,0,1,10.32-11.15,30.49,30.49,0,0,1,15.65-3.93,37.58,37.58,0,0,1,16.27,3.4l-1.74,3.91A31.51,31.51,0,0,0,443,288.43Z" transform="translate(-93.65 -70.23)"/>
    <path d="M504.79,325.6H479.56l-8.67,21.92h-4.8l25-62.36h2.76l24.47,62.36h-4.89Zm-23.66-3.91h22.22l-8.45-22.39q-1.06-2.63-2.55-7.31a68.23,68.23,0,0,1-2.51,7.39Z" transform="translate(-93.65 -70.23)"/>
    <path d="M547.63,347.52h-4.37v-58H523.07v-4.08h44.73v4.08H547.63Z" transform="translate(-93.65 -70.23)"/>
    <path d="M615.32,347.52H581.37V285.42h33.94v4H585.71V312.9h28v4h-28v26.64h29.61Z" transform="translate(-93.65 -70.23)"/>
    <g>
      <g>
        <path d="M122.31,246l-21.17-55.31h-.34q.6,6.57.6,15.62V246H94.7V183.57h10.92L125.39,235h.34l19.93-51.47H156.5V246h-7.25v-40.2q0-6.91.6-15h-.34L128.16,246Z" transform="translate(-93.65 -70.23)"/>
        <path d="M165,186.51a4.7,4.7,0,0,1,1.19-3.56,4.42,4.42,0,0,1,5.93,0,4.62,4.62,0,0,1,1.24,3.54,4.69,4.69,0,0,1-1.24,3.56,4.13,4.13,0,0,1-2.94,1.17,4.09,4.09,0,0,1-3-1.17A4.79,4.79,0,0,1,165,186.51ZM172.63,246h-7.08V199.19h7.08Z" transform="translate(-93.65 -70.23)"/>
        <path d="M201.1,246.81q-10.16,0-15.73-6.25t-5.57-17.69q0-11.74,5.65-18.14t16.11-6.4a32,32,0,0,1,6.74.73,22.27,22.27,0,0,1,5.29,1.71l-2.18,6a33.45,33.45,0,0,0-5.12-1.56,22.92,22.92,0,0,0-4.91-.62q-14.25,0-14.25,18.18,0,8.62,3.48,13.23t10.31,4.61a31.5,31.5,0,0,0,12-2.52v6.27A25.56,25.56,0,0,1,201.1,246.81Z" transform="translate(-93.65 -70.23)"/>
        <path d="M241.86,198.33a27.73,27.73,0,0,1,5.59.51l-1,6.57a24.14,24.14,0,0,0-5.12-.64,12.46,12.46,0,0,0-9.71,4.61,16.81,16.81,0,0,0-4,11.48V246h-7.08V199.19h5.85l.81,8.66h.34a20.55,20.55,0,0,1,6.27-7A14.13,14.13,0,0,1,241.86,198.33Z" transform="translate(-93.65 -70.23)"/>
        <path d="M290.45,222.53q0,11.44-5.76,17.86t-15.92,6.42a21.08,21.08,0,0,1-11.14-2.94,19.43,19.43,0,0,1-7.51-8.45,29.44,29.44,0,0,1-2.65-12.89q0-11.44,5.72-17.82t15.88-6.38q9.81,0,15.6,6.53T290.45,222.53Zm-35.63,0q0,9,3.58,13.66t10.54,4.69q7,0,10.56-4.67t3.61-13.68q0-8.92-3.61-13.55t-10.65-4.63q-7,0-10.5,4.57T254.82,222.53Z" transform="translate(-93.65 -70.23)"/>
        <path d="M325.26,246l-15-48.95h-.38q.81,14.94.81,19.93v29H298.84V183.57h18l14.77,47.71h.26l15.66-47.71h18V246H353.21V216.43q0-2.09.06-4.82t.58-14.51h-.38L337.38,246Z" transform="translate(-93.65 -70.23)"/>
        <path d="M405.28,246l-2.52-6.49h-.34a19.23,19.23,0,0,1-6.76,5.74,21.86,21.86,0,0,1-9.07,1.6q-6.87,0-10.82-3.93t-3.95-11.18q0-7.6,5.31-11.2t16-4l8.28-.26v-2.09q0-7.25-7.43-7.25-5.72,0-13.44,3.46l-4.31-8.79a38.79,38.79,0,0,1,18.26-4.31q9.6,0,14.72,4.18t5.12,12.72V246Zm-3.84-22.11-5,.17q-5.68.17-8.45,2a6.43,6.43,0,0,0-2.77,5.72q0,5.51,6.32,5.51a10,10,0,0,0,7.23-2.6,9.14,9.14,0,0,0,2.71-6.91Z" transform="translate(-93.65 -70.23)"/>
        <path d="M456.68,231.79q0,7.34-5.1,11.18t-15.26,3.84a47.91,47.91,0,0,1-8.88-.7,33.52,33.52,0,0,1-6.87-2.07V233.29a45.33,45.33,0,0,0,8.17,2.86,33.09,33.09,0,0,0,8,1.15q7.08,0,7.08-4.1a3.42,3.42,0,0,0-.94-2.5,13.62,13.62,0,0,0-3.24-2.18q-2.3-1.22-6.15-2.84a38.58,38.58,0,0,1-8.09-4.27,12,12,0,0,1-3.76-4.5,14.85,14.85,0,0,1-1.17-6.25,11.33,11.33,0,0,1,4.93-9.84q4.93-3.48,14-3.48a39.69,39.69,0,0,1,16.77,3.76l-3.93,9.39q-3.58-1.54-6.7-2.52a21.06,21.06,0,0,0-6.36-1q-5.76,0-5.76,3.12a3.66,3.66,0,0,0,1.86,3,50.45,50.45,0,0,0,8.13,3.8,37.85,37.85,0,0,1,8.19,4.22,12.51,12.51,0,0,1,3.84,4.52A13.91,13.91,0,0,1,456.68,231.79Z" transform="translate(-93.65 -70.23)"/>
        <path d="M486.5,236.44a28.19,28.19,0,0,0,8.19-1.49v9.69a29.22,29.22,0,0,1-11.95,2.18q-7.81,0-11.37-3.95T467.81,231V208h-6.23v-5.51l7.17-4.35,3.76-10.07h8.32v10.16h13.36V208H480.83v23a5.08,5.08,0,0,0,1.56,4.1A6.14,6.14,0,0,0,486.5,236.44Z" transform="translate(-93.65 -70.23)"/>
        <path d="M523.31,246.81q-11.52,0-18-6.36t-6.49-18q0-12,6-18.54t16.58-6.55q10.11,0,15.75,5.76T542.77,219v6.32H512q.21,5.55,3.29,8.66t8.62,3.12a35.79,35.79,0,0,0,8.15-.9,40.78,40.78,0,0,0,8-2.86v10.07a30.57,30.57,0,0,1-7.3,2.54A46,46,0,0,1,523.31,246.81Zm-1.84-40.2a8.25,8.25,0,0,0-6.49,2.62,12.14,12.14,0,0,0-2.69,7.45h18.26q-.09-4.82-2.52-7.45A8.53,8.53,0,0,0,521.48,206.61Z" transform="translate(-93.65 -70.23)"/>
        <path d="M575.61,197.35a21,21,0,0,1,4.4.38l-1,12.2a15,15,0,0,0-3.84-.43q-6.23,0-9.71,3.2t-3.48,9V246H549V198.25h9.86l1.92,8h.64a17.94,17.94,0,0,1,6-6.47A14.79,14.79,0,0,1,575.61,197.35Z" transform="translate(-93.65 -70.23)"/>
        <path d="M620.21,231.79q0,7.34-5.1,11.18t-15.26,3.84a47.91,47.91,0,0,1-8.88-.7,33.52,33.52,0,0,1-6.87-2.07V233.29a45.33,45.33,0,0,0,8.17,2.86,33.09,33.09,0,0,0,8,1.15q7.08,0,7.08-4.1a3.42,3.42,0,0,0-.94-2.5,13.62,13.62,0,0,0-3.24-2.18q-2.3-1.22-6.15-2.84a38.58,38.58,0,0,1-8.09-4.27,12,12,0,0,1-3.76-4.5,14.85,14.85,0,0,1-1.17-6.25,11.33,11.33,0,0,1,4.93-9.84q4.93-3.48,14-3.48a39.69,39.69,0,0,1,16.77,3.76l-3.93,9.39q-3.58-1.54-6.7-2.52a21.06,21.06,0,0,0-6.36-1q-5.76,0-5.76,3.12a3.66,3.66,0,0,0,1.86,3,50.45,50.45,0,0,0,8.13,3.8,37.85,37.85,0,0,1,8.19,4.22,12.51,12.51,0,0,1,3.84,4.52A13.91,13.91,0,0,1,620.21,231.79Z" transform="translate(-93.65 -70.23)"/>
      </g>
      <rect x="93.65" y="159.87" width="196.47" height="5.22" transform="translate(-93.89 -69.94) rotate(-0.09)"/>
      <path d="M101.4,145.66a92.88,92.88,0,0,1,17.09-34,194.37,194.37,0,0,0,19.36,4.84A90.23,90.23,0,0,0,127,145.66h6a84.71,84.71,0,0,1,11-28.05,278.39,278.39,0,0,0,45.87,4.12v23.93h5.83V121.72a280.54,280.54,0,0,0,46.06-4.4,84.34,84.34,0,0,1,11.12,28.35h6a89.86,89.86,0,0,0-11-29.51q9.39-1.91,19.13-4.62a92.87,92.87,0,0,1,17.17,34.13h6.05c-11.08-44.41-51.13-75.43-97.4-75.43s-86.32,31-97.4,75.43Zm161.34-39q-9.29,2.49-18.26,4.23c-11.58-17-27.07-27.76-38-33.81A94.57,94.57,0,0,1,262.74,106.64ZM195.65,78.14C204.27,82,223.89,92.38,238.14,112a274.75,274.75,0,0,1-42.49,3.87Zm-5.83,37.78a272.67,272.67,0,0,1-42.31-3.6c14.13-19.58,33.57-30.08,42.31-34.06ZM179.44,77c-10.95,6.09-26.6,17-38.28,34.19-8.36-1.61-14.68-3.28-18.54-4.4A94.54,94.54,0,0,1,179.44,77Z" transform="translate(-93.65 -70.23)"/>
    </g>
    <path d="M628.43,196.84a14.24,14.24,0,0,1,1.92-7.18,14,14,0,0,1,5.27-5.29,14.43,14.43,0,0,1,14.4,0,14,14,0,0,1,5.29,5.27,14.41,14.41,0,1,1-26.87,7.22Zm2.36,0a12,12,0,0,0,18.1,10.41,12,12,0,0,0,4.4-4.4,12.05,12.05,0,0,0-16.43-16.46,12,12,0,0,0-4.41,4.39A11.75,11.75,0,0,0,630.79,196.84Zm17.89-3.41a4.41,4.41,0,0,1-2.93,4.46l4.54,7.6h-4l-3.68-6.63h-1.72v6.63h-3.62V188.21h5a7.52,7.52,0,0,1,4.88,1.3A4.84,4.84,0,0,1,648.68,193.43Zm-7.83,2.66h1.32a3.06,3.06,0,0,0,2.14-.67,2.47,2.47,0,0,0,.73-1.92,2.31,2.31,0,0,0-.7-1.92,3.6,3.6,0,0,0-2.21-.55h-1.28Z" transform="translate(-93.65 -70.23)"/>
</svg>
