<svg xmlns="http://www.w3.org/2000/svg" viewBox="0 0 527.55 135.52"><defs><style>.cls-1{fill:#002c2b;}</style></defs><g id="Layer_2" data-name="Layer 2"><g id="Layer_1-2" data-name="Layer 1"><path class="cls-1" d="M37.83,15.23H30.06a7.67,7.67,0,0,0-.87-2.69,7,7,0,0,0-1.69-2,7.53,7.53,0,0,0-2.37-1.28,9.33,9.33,0,0,0-2.9-.44,8.68,8.68,0,0,0-4.92,1.39,9,9,0,0,0-3.25,4.05,16.09,16.09,0,0,0-1.15,6.44,16.13,16.13,0,0,0,1.16,6.53,8.42,8.42,0,0,0,8.1,5.34,9.76,9.76,0,0,0,2.87-.4A7.67,7.67,0,0,0,27.39,31,6.92,6.92,0,0,0,29.11,29a7.84,7.84,0,0,0,.95-2.59l7.77,0a14,14,0,0,1-1.5,4.82,14.35,14.35,0,0,1-3.21,4.14,15.18,15.18,0,0,1-4.79,2.88,17.71,17.71,0,0,1-6.28,1,17.09,17.09,0,0,1-8.69-2.2,15.56,15.56,0,0,1-6-6.37,21.37,21.37,0,0,1-2.21-10.1A21.23,21.23,0,0,1,7.35,10.56,15.6,15.6,0,0,1,13.42,4.2,17.09,17.09,0,0,1,22.05,2a18.81,18.81,0,0,1,5.87.88,15.23,15.23,0,0,1,4.8,2.59,13.5,13.5,0,0,1,3.42,4.14A15.47,15.47,0,0,1,37.83,15.23Z"/><path class="cls-1" d="M55.64,39.4a14.48,14.48,0,0,1-7.23-1.71,11.65,11.65,0,0,1-4.66-4.87,16,16,0,0,1-1.64-7.46A15.94,15.94,0,0,1,43.75,18a12.07,12.07,0,0,1,4.61-5,13.39,13.39,0,0,1,7-1.77,14.58,14.58,0,0,1,5,.86,11.47,11.47,0,0,1,4.08,2.58A11.82,11.82,0,0,1,67.18,19a17,17,0,0,1,1,6.08v2.08h-23V22.48H61a5.85,5.85,0,0,0-.71-2.9,5.18,5.18,0,0,0-2-2,5.69,5.69,0,0,0-2.9-.71,5.8,5.8,0,0,0-3,.79,5.66,5.66,0,0,0-2.07,2.11,6.07,6.07,0,0,0-.76,2.94v4.45a7.62,7.62,0,0,0,.75,3.5A5.46,5.46,0,0,0,52.48,33a6.42,6.42,0,0,0,3.29.8,7.09,7.09,0,0,0,2.31-.35,4.83,4.83,0,0,0,1.79-1.07A4.55,4.55,0,0,0,61,30.59l7,.46a9.51,9.51,0,0,1-2.17,4.4,11,11,0,0,1-4.23,2.91A15.93,15.93,0,0,1,55.64,39.4Z"/><path class="cls-1" d="M73.1,38.87V11.59h7.33v4.76h.28a7.12,7.12,0,0,1,2.51-3.84,6.61,6.61,0,0,1,4-1.31c.38,0,.78,0,1.22.07a9.89,9.89,0,0,1,1.16.2v6.71a10.66,10.66,0,0,0-1.48-.28,13.85,13.85,0,0,0-1.72-.13,6,6,0,0,0-3,.72,5.35,5.35,0,0,0-2.06,2,5.64,5.64,0,0,0-.76,3V38.87Z"/><path class="cls-1" d="M109.41,11.59v5.69H93V11.59ZM96.71,5.06h7.57V30.49a3.28,3.28,0,0,0,.32,1.62,1.71,1.71,0,0,0,.89.81,3.69,3.69,0,0,0,1.34.23,5.54,5.54,0,0,0,1.07-.1l.81-.15,1.2,5.63c-.38.12-.92.26-1.6.42a13.78,13.78,0,0,1-2.51.29,11.38,11.38,0,0,1-4.78-.73,6.66,6.66,0,0,1-3.19-2.59,7.92,7.92,0,0,1-1.12-4.44Z"/><path class="cls-1" d="M118.14,8.08A4.09,4.09,0,0,1,115.25,7,3.55,3.55,0,0,1,114,4.24a3.56,3.56,0,0,1,1.21-2.69,4.29,4.29,0,0,1,5.78,0,3.58,3.58,0,0,1,1.2,2.69A3.58,3.58,0,0,1,121,7,4.07,4.07,0,0,1,118.14,8.08Zm-3.81,30.79V11.59h7.56V38.87Z"/><path class="cls-1" d="M142.59,11.59v5.69H125.76V11.59Zm-13,27.28V9.62a9.42,9.42,0,0,1,1.17-4.91A7.26,7.26,0,0,1,134,1.78a10.36,10.36,0,0,1,4.6-1,17.49,17.49,0,0,1,3.19.27,21.82,21.82,0,0,1,2.16.47l-1.35,5.69A8.25,8.25,0,0,0,141.47,7a7.39,7.39,0,0,0-1.33-.12,2.89,2.89,0,0,0-2.32.77,3.21,3.21,0,0,0-.66,2.16v29.1Z"/><path class="cls-1" d="M151,8.08A4.11,4.11,0,0,1,148.13,7a3.62,3.62,0,0,1,0-5.4,4.29,4.29,0,0,1,5.78,0,3.58,3.58,0,0,1,1.2,2.69A3.58,3.58,0,0,1,153.91,7,4.07,4.07,0,0,1,151,8.08Zm-3.82,30.79V11.59h7.56V38.87Z"/><path class="cls-1" d="M173.13,39.4a14,14,0,0,1-7.2-1.78,11.9,11.9,0,0,1-4.61-5,15.86,15.86,0,0,1-1.61-7.31A15.93,15.93,0,0,1,161.33,18,12,12,0,0,1,166,13a13.71,13.71,0,0,1,7.14-1.78,14.13,14.13,0,0,1,6.25,1.3,10.39,10.39,0,0,1,4.24,3.64,10.62,10.62,0,0,1,1.72,5.5h-7.14a5.54,5.54,0,0,0-1.59-3.29,4.57,4.57,0,0,0-3.36-1.26,5.08,5.08,0,0,0-3.06.95,6.26,6.26,0,0,0-2,2.76,11.9,11.9,0,0,0-.72,4.39,12.15,12.15,0,0,0,.72,4.44,6.08,6.08,0,0,0,2,2.79,5.37,5.37,0,0,0,5.41.42,4.55,4.55,0,0,0,1.72-1.55,6,6,0,0,0,.89-2.46h7.14a11.24,11.24,0,0,1-1.69,5.5,10.43,10.43,0,0,1-4.18,3.7A13.94,13.94,0,0,1,173.13,39.4Z"/><path class="cls-1" d="M198,39.38a11.27,11.27,0,0,1-4.66-.91,7.39,7.39,0,0,1-3.22-2.72,8,8,0,0,1-1.18-4.5,8.05,8.05,0,0,1,.83-3.82A6.72,6.72,0,0,1,192,25a10.88,10.88,0,0,1,3.27-1.42,24.66,24.66,0,0,1,3.86-.68c1.59-.16,2.87-.32,3.84-.47a5.31,5.31,0,0,0,2.11-.67,1.47,1.47,0,0,0,.66-1.31v-.11a3.28,3.28,0,0,0-1.06-2.61,4.42,4.42,0,0,0-3-.92,5.33,5.33,0,0,0-3.25.9,4.23,4.23,0,0,0-1.6,2.24l-7-.56A9.51,9.51,0,0,1,192,15a10.31,10.31,0,0,1,4-2.81,15.63,15.63,0,0,1,5.75-1,17.89,17.89,0,0,1,4.36.53,11.8,11.8,0,0,1,3.71,1.65,8,8,0,0,1,2.56,2.87,8.69,8.69,0,0,1,.94,4.18v18.4h-7.17V35.08h-.21a7.54,7.54,0,0,1-1.76,2.25,7.91,7.91,0,0,1-2.65,1.51A10.79,10.79,0,0,1,198,39.38Zm2.16-5.22a6.35,6.35,0,0,0,2.95-.66,5.16,5.16,0,0,0,2-1.81,4.6,4.6,0,0,0,.73-2.57V26.23a3.76,3.76,0,0,1-1,.41,11.92,11.92,0,0,1-1.37.34q-.77.15-1.53.27l-1.38.2a9.5,9.5,0,0,0-2.33.62,3.77,3.77,0,0,0-1.54,1.15,2.82,2.82,0,0,0-.55,1.78,2.7,2.7,0,0,0,1.12,2.35A4.8,4.8,0,0,0,200.12,34.16Z"/><path class="cls-1" d="M231.51,39.4a14,14,0,0,1-7.2-1.78,11.9,11.9,0,0,1-4.61-5,15.86,15.86,0,0,1-1.61-7.31A15.93,15.93,0,0,1,219.71,18a12,12,0,0,1,4.63-5,13.71,13.71,0,0,1,7.14-1.78,14.13,14.13,0,0,1,6.25,1.3A10.39,10.39,0,0,1,242,16.18a10.62,10.62,0,0,1,1.72,5.5h-7.13A5.66,5.66,0,0,0,235,18.39a4.61,4.61,0,0,0-3.37-1.26,5.08,5.08,0,0,0-3.06.95,6.16,6.16,0,0,0-2,2.76,11.69,11.69,0,0,0-.73,4.39,12.15,12.15,0,0,0,.72,4.44,6.08,6.08,0,0,0,2,2.79,5.07,5.07,0,0,0,3.07,1,5,5,0,0,0,2.34-.54,4.55,4.55,0,0,0,1.72-1.55,6.11,6.11,0,0,0,.9-2.46h7.13a11.14,11.14,0,0,1-1.69,5.5,10.37,10.37,0,0,1-4.18,3.7A13.94,13.94,0,0,1,231.51,39.4Z"/><path class="cls-1" d="M252.38,8.08A4.11,4.11,0,0,1,249.48,7a3.62,3.62,0,0,1,0-5.4,4.29,4.29,0,0,1,5.78,0,3.58,3.58,0,0,1,1.2,2.69A3.58,3.58,0,0,1,255.26,7,4.07,4.07,0,0,1,252.38,8.08Zm-3.82,30.79V11.59h7.56V38.87Z"/><path class="cls-1" d="M274.48,39.4a13.86,13.86,0,0,1-7.15-1.77,11.93,11.93,0,0,1-4.64-4.93,15.87,15.87,0,0,1-1.63-7.36,15.92,15.92,0,0,1,1.63-7.4A11.93,11.93,0,0,1,267.33,13a15.33,15.33,0,0,1,14.3,0,11.93,11.93,0,0,1,4.64,4.93,15.92,15.92,0,0,1,1.64,7.4,15.87,15.87,0,0,1-1.64,7.36,11.93,11.93,0,0,1-4.64,4.93A13.86,13.86,0,0,1,274.48,39.4Zm0-5.86a4.71,4.71,0,0,0,3.14-1.07,6.64,6.64,0,0,0,1.91-2.94,13,13,0,0,0,.65-4.25,12.93,12.93,0,0,0-.65-4.24,6.73,6.73,0,0,0-1.91-2.95A4.66,4.66,0,0,0,274.52,17a4.8,4.8,0,0,0-3.19,1.08A6.69,6.69,0,0,0,269.39,21a12.94,12.94,0,0,0-.64,4.24,13,13,0,0,0,.64,4.25,6.6,6.6,0,0,0,1.94,2.94A4.84,4.84,0,0,0,274.52,33.54ZM271.76,8.08,275.53,0h7l-5.41,8.08Z"/><path class="cls-1" d="M300.4,23.1V38.87h-7.56V11.59h7.21v4.82h.32a7.65,7.65,0,0,1,3-3.78,9.21,9.21,0,0,1,5.16-1.39,9.59,9.59,0,0,1,5,1.24A8.52,8.52,0,0,1,316.81,16,12,12,0,0,1,318,21.5V38.87h-7.56v-16a5.52,5.52,0,0,0-1.28-3.91,4.6,4.6,0,0,0-3.57-1.42,5.36,5.36,0,0,0-2.69.66,4.58,4.58,0,0,0-1.81,1.91A6.75,6.75,0,0,0,300.4,23.1Z"/><path class="cls-1" d="M0,134.33l12-72H37.62Q46,62.33,51,65.39a15.73,15.73,0,0,1,6.89,8.33,23.69,23.69,0,0,1,.8,11.92A29.39,29.39,0,0,1,54,97.56a25.66,25.66,0,0,1-9.69,8.38A31.43,31.43,0,0,1,29.85,109H15.08l-4.22,25.31ZM16.63,99.81H30.34q8,0,12.18-4a17.55,17.55,0,0,0,5.19-10.12q1-6.15-1.85-10.07T35,71.65H21.3Z"/><path class="cls-1" d="M62.33,134.33l9-54H81.49l-1.44,8.58h.56A16.64,16.64,0,0,1,86.92,82a17,17,0,0,1,9-2.51,10.08,10.08,0,0,1,6.64,2l-4.78,8.68a10,10,0,0,0-4.75-1,14.86,14.86,0,0,0-9.65,3.43,14,14,0,0,0-5.11,8.7l-5.42,33Z"/><path class="cls-1" d="M122.87,135.42c-5.16,0-9.44-1.18-12.87-3.55a19,19,0,0,1-7.26-9.92,31,31,0,0,1-.75-14.83,36.56,36.56,0,0,1,5.41-14.49A29.06,29.06,0,0,1,117.62,83a27.49,27.49,0,0,1,13.62-3.41q7.72,0,12.87,3.55a18.94,18.94,0,0,1,7.26,9.93,31.32,31.32,0,0,1,.75,14.92,36.13,36.13,0,0,1-5.43,14.4A29.35,29.35,0,0,1,136.48,132,27.53,27.53,0,0,1,122.87,135.42Zm.6-8.83a14.94,14.94,0,0,0,8.84-2.67,20.59,20.59,0,0,0,6.19-7.1,30.18,30.18,0,0,0,3.25-9.7,26.8,26.8,0,0,0,0-9.34A12.36,12.36,0,0,0,138.2,91c-1.81-1.71-4.32-2.56-7.56-2.56a15,15,0,0,0-8.86,2.68,20.36,20.36,0,0,0-6.17,7.14,31.71,31.71,0,0,0-3.25,9.76,26.46,26.46,0,0,0,0,9.28,12.27,12.27,0,0,0,3.53,6.77C117.71,125.75,120.23,126.59,123.47,126.59Z"/><path class="cls-1" d="M194.31,80.33l-1.37,8.44H181.19l-7.52,45.56H163.12l7.63-45.56h-8.33l1.37-8.44h8.37l1.05-6.26a17,17,0,0,1,3.55-8.42,17.55,17.55,0,0,1,6.72-5A20.79,20.79,0,0,1,191.67,59a23.81,23.81,0,0,1,5.36.51,20,20,0,0,1,3.15.94l-3.83,8.5c-.47-.16-1.07-.34-1.8-.52a11,11,0,0,0-2.74-.29A8,8,0,0,0,186,70a10,10,0,0,0-2.62,5.49l-.81,4.85Z"/><path class="cls-1" d="M217.12,135.42q-7.94,0-13.15-3.45a18,18,0,0,1-7.26-9.68q-2.06-6.24-.65-14.61a37.59,37.59,0,0,1,5.52-14.62,30.23,30.23,0,0,1,10.36-9.88,27.1,27.1,0,0,1,13.73-3.55,22.93,22.93,0,0,1,11.16,2.72A16.65,16.65,0,0,1,244.28,91q2.44,6,.79,15.74l-.6,3.72H206q-1.37,8.79,2.08,12.52t10.58,3.73a16.69,16.69,0,0,0,8.14-1.94,14,14,0,0,0,5.61-5.76l9.63,1.79a23.06,23.06,0,0,1-9.48,10.58A29.15,29.15,0,0,1,217.12,135.42Zm-9.77-32.8h28q1-6.2-1.93-10.25c-2-2.71-5-4.06-9.15-4.06a14.81,14.81,0,0,0-7.68,2.11,20.38,20.38,0,0,0-6,5.4A17.67,17.67,0,0,0,207.35,102.62Z"/><path class="cls-1" d="M299.56,93.51l-9.8,1.69a9.7,9.7,0,0,0-2.5-5q-2-2.23-7-2.23A15,15,0,0,0,272.37,90a7.46,7.46,0,0,0-3.88,5.3,4.36,4.36,0,0,0,1.23,4.2c1.12,1.06,3.1,1.95,5.94,2.65l8.3,2q14.3,3.41,12.44,14.8a16.53,16.53,0,0,1-4.2,8.54,23,23,0,0,1-8.67,5.84,31.26,31.26,0,0,1-11.74,2.11q-9.21,0-14.33-3.9t-5.29-11l10.41-1.55q.6,8,10.05,8a16,16,0,0,0,8.81-2.22c2.38-1.5,3.73-3.31,4.06-5.45a4.66,4.66,0,0,0-1.11-4.15q-1.51-1.65-5.36-2.53l-8.72-2q-14.4-3.37-12.37-15.19a16.17,16.17,0,0,1,4-8.3,21.87,21.87,0,0,1,8.23-5.52,29.91,29.91,0,0,1,11-2q8.82,0,13.25,3.76A14.57,14.57,0,0,1,299.56,93.51Z"/><path class="cls-1" d="M305.33,134.33l9-54h10.51l-9,54Zm16.42-62.44a6.29,6.29,0,0,1-4.59-1.84,5.55,5.55,0,0,1-1.74-4.42,6.17,6.17,0,0,1,2.14-4.44,6.92,6.92,0,0,1,4.79-1.85,6.29,6.29,0,0,1,4.58,1.85,5.5,5.5,0,0,1,1.74,4.44,6.12,6.12,0,0,1-2.14,4.42A6.89,6.89,0,0,1,321.75,71.89Z"/><path class="cls-1" d="M353,135.42q-7.74,0-12.87-3.55a19,19,0,0,1-7.26-9.92,31,31,0,0,1-.76-14.83,36.57,36.57,0,0,1,5.42-14.49A29,29,0,0,1,347.78,83a27.49,27.49,0,0,1,13.62-3.41q7.74,0,12.87,3.55a18.94,18.94,0,0,1,7.26,9.93,31.31,31.31,0,0,1,.76,14.92,36.13,36.13,0,0,1-5.43,14.4A29.37,29.37,0,0,1,366.64,132,27.49,27.49,0,0,1,353,135.42Zm.59-8.83a15,15,0,0,0,8.85-2.67,20.46,20.46,0,0,0,6.18-7.1,30.19,30.19,0,0,0,3.26-9.7,26.8,26.8,0,0,0,0-9.34,12.36,12.36,0,0,0-3.53-6.8q-2.72-2.57-7.56-2.56A14.94,14.94,0,0,0,352,91.1a20.36,20.36,0,0,0-6.17,7.14,31.45,31.45,0,0,0-3.25,9.76,26.47,26.47,0,0,0,0,9.28,12.22,12.22,0,0,0,3.54,6.77C347.88,125.75,350.4,126.59,353.63,126.59Z"/><path class="cls-1" d="M405.42,102.27l-5.28,32.06H389.63l9-54h10.09l-1.47,8.79h.66a19.23,19.23,0,0,1,7-6.91,20.6,20.6,0,0,1,10.53-2.58q8.19,0,12.42,5.15t2.59,15.2l-5.77,34.35H424.19l5.52-33.08q1-5.88-1.51-9.2t-7.88-3.32a14.33,14.33,0,0,0-9.63,3.53A16.51,16.51,0,0,0,405.42,102.27Z"/><path class="cls-1" d="M464.3,135.52a19.74,19.74,0,0,1-9-1.91A12.13,12.13,0,0,1,449.7,128a14.69,14.69,0,0,1-1-9q1-6.12,4.64-9.39A21.26,21.26,0,0,1,462,105a62.76,62.76,0,0,1,10.19-2q4.94-.59,8-1a14.13,14.13,0,0,0,4.63-1.21,3.54,3.54,0,0,0,1.88-2.69V97.8q.74-4.58-1.32-7.12t-7.12-2.55a16,16,0,0,0-8.84,2.32,16.14,16.14,0,0,0-5.26,5.21l-9.42-2.25a22.73,22.73,0,0,1,10.55-10.58,32.36,32.36,0,0,1,14.06-3.2,31.88,31.88,0,0,1,6.72.75,17.28,17.28,0,0,1,6.34,2.78,12,12,0,0,1,4.27,5.71q1.41,3.69.43,9.6l-6,35.86H480.83l1.26-7.38h-.42a21,21,0,0,1-6.33,5.8Q471,135.52,464.3,135.52Zm3.59-8.43a17,17,0,0,0,7.79-1.73,15.59,15.59,0,0,0,5.5-4.51,13.58,13.58,0,0,0,2.64-6l1.16-7a8.66,8.66,0,0,1-3.45,1.3c-1.71.38-3.51.69-5.41,1l-4.57.63a25.76,25.76,0,0,0-8.25,2.41,7.7,7.7,0,0,0-4.27,6c-.42,2.6.21,4.57,1.88,5.89A11,11,0,0,0,467.89,127.09Z"/><path class="cls-1" d="M527.55,62.33l-11.95,72H505.09l11.95-72Z"/></g></g></svg>