<svg xmlns="http://www.w3.org/2000/svg" viewBox="0 0 580.6 135.44"><defs><style>.cls-1{fill:#002c2b;}</style></defs><g id="Layer_2" data-name="Layer 2"><g id="Layer_1-2" data-name="Layer 1"><path class="cls-1" d="M37.84,111.28H30.06a7.54,7.54,0,0,0-.87-2.69,6.88,6.88,0,0,0-1.69-2,7.32,7.32,0,0,0-2.37-1.28,9.33,9.33,0,0,0-2.9-.44,8.68,8.68,0,0,0-4.92,1.39,9,9,0,0,0-3.25,4.05,16.12,16.12,0,0,0-1.15,6.44,16.31,16.31,0,0,0,1.16,6.53,8.41,8.41,0,0,0,8.11,5.35A9.69,9.69,0,0,0,25,128.2,7.31,7.31,0,0,0,27.4,127a7,7,0,0,0,1.71-1.93,7.76,7.76,0,0,0,.95-2.59l7.78,0a14.14,14.14,0,0,1-1.5,4.82,14.48,14.48,0,0,1-3.22,4.13,14.82,14.82,0,0,1-4.79,2.88,17.67,17.67,0,0,1-6.28,1.06,17.19,17.19,0,0,1-8.69-2.2,15.65,15.65,0,0,1-6-6.38,21.37,21.37,0,0,1-2.21-10.1,21.16,21.16,0,0,1,2.24-10.12,15.69,15.69,0,0,1,6.07-6.37,17.12,17.12,0,0,1,8.63-2.19,18.52,18.52,0,0,1,5.87.89,14.8,14.8,0,0,1,4.8,2.58,13.42,13.42,0,0,1,3.42,4.15A15.55,15.55,0,0,1,37.84,111.28Z"/><path class="cls-1" d="M55.65,135.44a14.49,14.49,0,0,1-7.24-1.71,11.59,11.59,0,0,1-4.66-4.87,17.73,17.73,0,0,1,0-14.85,12,12,0,0,1,4.61-5,13.3,13.3,0,0,1,7-1.78,14.58,14.58,0,0,1,5,.86,11.5,11.5,0,0,1,4.08,2.59,11.66,11.66,0,0,1,2.73,4.32,17.28,17.28,0,0,1,1,6.08v2.08h-23v-4.69H61a5.71,5.71,0,0,0-.71-2.89,5.11,5.11,0,0,0-2-2,5.7,5.7,0,0,0-2.9-.72,5.8,5.8,0,0,0-3,.79,5.66,5.66,0,0,0-2.07,2.11,6.07,6.07,0,0,0-.76,2.94v4.46a7.46,7.46,0,0,0,.76,3.49A5.4,5.4,0,0,0,52.48,129a6.52,6.52,0,0,0,3.29.8,7.08,7.08,0,0,0,2.31-.36,4.87,4.87,0,0,0,1.79-1.06A4.66,4.66,0,0,0,61,126.63l7,.47a9.52,9.52,0,0,1-2.17,4.39,11,11,0,0,1-4.23,2.91A15.72,15.72,0,0,1,55.65,135.44Z"/><path class="cls-1" d="M73.1,134.91V107.64h7.33v4.75h.29a7.05,7.05,0,0,1,2.5-3.84,6.6,6.6,0,0,1,4-1.3,10.58,10.58,0,0,1,1.22.07,8,8,0,0,1,1.16.19v6.71a10.66,10.66,0,0,0-1.48-.28,13.59,13.59,0,0,0-1.72-.12,6,6,0,0,0-3,.71,5.35,5.35,0,0,0-2.06,2,5.64,5.64,0,0,0-.76,3v15.43Z"/><path class="cls-1" d="M109.41,107.64v5.68H93v-5.68Zm-12.7-6.54h7.57v25.43a3.28,3.28,0,0,0,.32,1.62,1.71,1.71,0,0,0,.89.81,3.52,3.52,0,0,0,1.34.23,5.54,5.54,0,0,0,1.07-.1l.82-.15,1.19,5.63c-.38.12-.92.26-1.6.42a12.93,12.93,0,0,1-2.5.29,11.4,11.4,0,0,1-4.79-.73A6.66,6.66,0,0,1,97.83,132a7.92,7.92,0,0,1-1.12-4.44Z"/><path class="cls-1" d="M118.15,104.12a4.07,4.07,0,0,1-2.9-1.13,3.61,3.61,0,0,1,0-5.39,4.26,4.26,0,0,1,5.78,0,3.63,3.63,0,0,1,0,5.39A4,4,0,0,1,118.15,104.12Zm-3.82,30.79V107.64h7.56v27.27Z"/><path class="cls-1" d="M142.59,107.64v5.68H125.76v-5.68Zm-13,27.27V105.67a9.43,9.43,0,0,1,1.17-4.92A7.34,7.34,0,0,1,134,97.82a10.42,10.42,0,0,1,4.59-1,17.41,17.41,0,0,1,3.19.27,20,20,0,0,1,2.16.48l-1.35,5.68a8.25,8.25,0,0,0-1.09-.27,7.39,7.39,0,0,0-1.33-.12,2.94,2.94,0,0,0-2.32.77,3.22,3.22,0,0,0-.66,2.16v29.1Z"/><path class="cls-1" d="M151,104.12a4.07,4.07,0,0,1-2.9-1.13,3.63,3.63,0,0,1,0-5.39,4.26,4.26,0,0,1,5.78,0,3.63,3.63,0,0,1,0,5.39A4,4,0,0,1,151,104.12Zm-3.82,30.79V107.64h7.56v27.27Z"/><path class="cls-1" d="M173.13,135.44a13.88,13.88,0,0,1-7.2-1.78,11.9,11.9,0,0,1-4.61-5,17.46,17.46,0,0,1,0-14.67,12.08,12.08,0,0,1,4.63-5,13.71,13.71,0,0,1,7.14-1.79,14.13,14.13,0,0,1,6.25,1.3,10.4,10.4,0,0,1,4.24,3.64,10.65,10.65,0,0,1,1.72,5.5h-7.13a5.66,5.66,0,0,0-1.59-3.29,4.61,4.61,0,0,0-3.37-1.25,5,5,0,0,0-3.06.95,6.06,6.06,0,0,0-2,2.76,11.64,11.64,0,0,0-.73,4.38,12.15,12.15,0,0,0,.72,4.44,6.08,6.08,0,0,0,2,2.79,5.07,5.07,0,0,0,3.07,1,5.13,5.13,0,0,0,2.34-.53,4.66,4.66,0,0,0,1.72-1.56,6.11,6.11,0,0,0,.9-2.46h7.13a11.11,11.11,0,0,1-1.69,5.5,10.37,10.37,0,0,1-4.18,3.7A13.94,13.94,0,0,1,173.13,135.44Z"/><path class="cls-1" d="M198,135.42a11.33,11.33,0,0,1-4.66-.91,7.39,7.39,0,0,1-3.22-2.72,9.19,9.19,0,0,1-.35-8.32A6.8,6.8,0,0,1,192,121a11,11,0,0,1,3.27-1.42,24.79,24.79,0,0,1,3.87-.68c1.58-.16,2.86-.32,3.83-.47a5.28,5.28,0,0,0,2.11-.66,1.5,1.5,0,0,0,.66-1.32v-.1a3.25,3.25,0,0,0-1.06-2.61,4.37,4.37,0,0,0-3-.93,5.33,5.33,0,0,0-3.25.9,4.31,4.31,0,0,0-1.6,2.25l-7-.57a9.56,9.56,0,0,1,2.09-4.31,10.19,10.19,0,0,1,4-2.8,15.46,15.46,0,0,1,5.75-1,17.83,17.83,0,0,1,4.36.53,11.7,11.7,0,0,1,3.71,1.65,8.12,8.12,0,0,1,2.56,2.87,8.69,8.69,0,0,1,.94,4.18v18.4h-7.17v-3.78h-.21a7.63,7.63,0,0,1-1.76,2.24,7.72,7.72,0,0,1-2.65,1.51A10.7,10.7,0,0,1,198,135.42Zm2.16-5.22a6.35,6.35,0,0,0,2.95-.66,5.32,5.32,0,0,0,2-1.8,4.73,4.73,0,0,0,.72-2.58v-2.89a3.83,3.83,0,0,1-1,.41,12.67,12.67,0,0,1-1.38.34q-.77.15-1.53.27l-1.38.2a9.63,9.63,0,0,0-2.33.62,3.77,3.77,0,0,0-1.54,1.15,2.82,2.82,0,0,0-.55,1.78,2.73,2.73,0,0,0,1.12,2.36A4.89,4.89,0,0,0,200.12,130.2Z"/><path class="cls-1" d="M233.7,107.64v5.68H217.27v-5.68ZM221,101.1h7.57v25.43a3.28,3.28,0,0,0,.32,1.62,1.71,1.71,0,0,0,.89.81,3.49,3.49,0,0,0,1.34.23,5.54,5.54,0,0,0,1.07-.1l.82-.15,1.19,5.63c-.38.12-.92.26-1.6.42a13,13,0,0,1-2.51.29,11.38,11.38,0,0,1-4.78-.73,6.66,6.66,0,0,1-3.19-2.59,7.92,7.92,0,0,1-1.12-4.44Z"/><path class="cls-1" d="M250.76,135.44a14.46,14.46,0,0,1-7.23-1.71,11.61,11.61,0,0,1-4.67-4.87,17.73,17.73,0,0,1,0-14.85,12,12,0,0,1,4.61-5,13.33,13.33,0,0,1,7-1.78,14.48,14.48,0,0,1,5,.86,11.45,11.45,0,0,1,4.09,2.59,11.77,11.77,0,0,1,2.72,4.32,17.27,17.27,0,0,1,1,6.08v2.08h-23v-4.69h15.91a5.81,5.81,0,0,0-.71-2.89,5.18,5.18,0,0,0-2-2,6.24,6.24,0,0,0-6,.07,5.66,5.66,0,0,0-2.07,2.11,6,6,0,0,0-.76,2.94v4.46a7.58,7.58,0,0,0,.75,3.49A5.42,5.42,0,0,0,247.6,129a6.49,6.49,0,0,0,3.29.8,7,7,0,0,0,2.3-.36,4.91,4.91,0,0,0,1.8-1.06,4.77,4.77,0,0,0,1.13-1.75l7,.47a9.54,9.54,0,0,1-2.18,4.39,10.84,10.84,0,0,1-4.22,2.91A15.74,15.74,0,0,1,250.76,135.44Z"/><path class="cls-1" d="M0,75.38l12-72H37.62Q46,3.38,51,6.43a15.75,15.75,0,0,1,6.89,8.34,23.64,23.64,0,0,1,.8,11.91A29.33,29.33,0,0,1,54,38.6,25.6,25.6,0,0,1,44.26,47a31.43,31.43,0,0,1-14.41,3.07H15.08L10.86,75.38ZM16.63,40.85H30.34q8,0,12.18-4a17.57,17.57,0,0,0,5.19-10.13q1-6.15-1.85-10.07T35,12.69H21.3Z"/><path class="cls-1" d="M62.33,75.38l9-54H81.49L80.05,30h.56a16.67,16.67,0,0,1,6.31-6.87,17,17,0,0,1,9-2.51,10,10,0,0,1,6.64,2l-4.78,8.68A10,10,0,0,0,93,30.27a14.81,14.81,0,0,0-9.65,3.43,14,14,0,0,0-5.11,8.7l-5.42,33Z"/><path class="cls-1" d="M122.87,76.46c-5.16,0-9.44-1.18-12.87-3.55A19,19,0,0,1,102.74,63,31,31,0,0,1,102,48.16a36.45,36.45,0,0,1,5.41-14.48,29.09,29.09,0,0,1,10.22-9.6,27.59,27.59,0,0,1,13.62-3.41,22.19,22.19,0,0,1,12.87,3.55,19,19,0,0,1,7.26,9.93,31.36,31.36,0,0,1,.75,14.93,36.14,36.14,0,0,1-5.43,14.39,29.25,29.25,0,0,1-10.21,9.58A27.42,27.42,0,0,1,122.87,76.46Zm.6-8.82A14.94,14.94,0,0,0,132.31,65a20.59,20.59,0,0,0,6.19-7.1,30.24,30.24,0,0,0,3.25-9.71,26.74,26.74,0,0,0,0-9.33A12.36,12.36,0,0,0,138.2,32c-1.81-1.71-4.32-2.57-7.56-2.57a15,15,0,0,0-8.86,2.69,20.19,20.19,0,0,0-6.17,7.14A31.56,31.56,0,0,0,112.36,49a26.46,26.46,0,0,0,0,9.28,12.23,12.23,0,0,0,3.53,6.77Q118.61,67.64,123.47,67.64Z"/><path class="cls-1" d="M194.31,21.38l-1.37,8.43H181.19l-7.52,45.57H163.12l7.63-45.57h-8.33l1.37-8.43h8.37l1.05-6.26a17,17,0,0,1,3.55-8.42,17.45,17.45,0,0,1,6.72-5A20.79,20.79,0,0,1,191.67,0,23.81,23.81,0,0,1,197,.51a21.38,21.38,0,0,1,3.15.93L196.35,10c-.47-.16-1.07-.34-1.8-.53a11,11,0,0,0-2.74-.28Q188,9.14,186,11a9.91,9.91,0,0,0-2.62,5.48l-.81,4.86Z"/><path class="cls-1" d="M217.12,76.46c-5.29,0-9.68-1.14-13.14-3.44a18,18,0,0,1-7.26-9.69q-2.07-6.24-.65-14.6a37.53,37.53,0,0,1,5.51-14.63,30.33,30.33,0,0,1,10.36-9.88,27.23,27.23,0,0,1,13.73-3.55,22.94,22.94,0,0,1,11.16,2.73,16.62,16.62,0,0,1,7.45,8.68q2.44,6,.79,15.73l-.59,3.73H206q-1.37,8.79,2.08,12.51t10.58,3.73a16.69,16.69,0,0,0,8.14-1.93,14,14,0,0,0,5.61-5.77l9.63,1.8a23.1,23.1,0,0,1-9.47,10.58A29.2,29.2,0,0,1,217.12,76.46Zm-9.77-32.8h28q1-6.18-1.93-10.24t-9.14-4.06a14.9,14.9,0,0,0-7.69,2.1,20.78,20.78,0,0,0-6,5.4A17.74,17.74,0,0,0,207.35,43.66Z"/><path class="cls-1" d="M299.57,34.56l-9.81,1.69a9.63,9.63,0,0,0-2.5-5q-2-2.23-7-2.24a15,15,0,0,0-7.93,2.06,7.47,7.47,0,0,0-3.88,5.29,4.35,4.35,0,0,0,1.23,4.2c1.12,1.07,3.1,2,5.94,2.66l8.3,2Q298.27,48.59,296.4,60a16.53,16.53,0,0,1-4.2,8.54,23.16,23.16,0,0,1-8.67,5.84,31.46,31.46,0,0,1-11.74,2.1q-9.21,0-14.32-3.9t-5.3-11L262.58,60q.6,8,10.06,8a15.92,15.92,0,0,0,8.8-2.21q3.57-2.25,4.06-5.45a4.64,4.64,0,0,0-1.1-4.15c-1-1.1-2.81-2-5.37-2.53l-8.71-2q-14.42-3.37-12.38-15.18a16.14,16.14,0,0,1,4-8.3,21.64,21.64,0,0,1,8.23-5.52,29.91,29.91,0,0,1,11-2q8.82,0,13.25,3.76A14.65,14.65,0,0,1,299.57,34.56Z"/><path class="cls-1" d="M352.62,34.56l-9.81,1.69a9.63,9.63,0,0,0-2.5-5q-2-2.23-7-2.24a15,15,0,0,0-7.93,2.06,7.47,7.47,0,0,0-3.88,5.29,4.35,4.35,0,0,0,1.23,4.2c1.12,1.07,3.1,2,5.94,2.66l8.3,2q14.3,3.41,12.44,14.8a16.53,16.53,0,0,1-4.2,8.54,23.16,23.16,0,0,1-8.67,5.84,31.46,31.46,0,0,1-11.74,2.1q-9.21,0-14.32-3.9t-5.3-11L315.63,60q.6,8,10.06,8a15.92,15.92,0,0,0,8.8-2.21q3.57-2.25,4.06-5.45a4.67,4.67,0,0,0-1.1-4.15c-1-1.1-2.81-2-5.37-2.53l-8.71-2Q309,48.27,311,36.46a16.14,16.14,0,0,1,4-8.3,21.64,21.64,0,0,1,8.23-5.52,29.91,29.91,0,0,1,11-2q8.82,0,13.25,3.76A14.65,14.65,0,0,1,352.62,34.56Z"/><path class="cls-1" d="M358.38,75.38l9-54h10.51l-9,54ZM374.8,12.94a6.3,6.3,0,0,1-4.59-1.85,5.53,5.53,0,0,1-1.74-4.41,6.15,6.15,0,0,1,2.14-4.45A6.91,6.91,0,0,1,375.4.39,6.28,6.28,0,0,1,380,2.23a5.52,5.52,0,0,1,1.74,4.45,6.1,6.1,0,0,1-2.14,4.41A6.9,6.9,0,0,1,374.8,12.94Z"/><path class="cls-1" d="M406.09,76.46q-7.74,0-12.87-3.55A19,19,0,0,1,386,63a31,31,0,0,1-.76-14.84,36.46,36.46,0,0,1,5.42-14.48,29.06,29.06,0,0,1,10.21-9.6,27.59,27.59,0,0,1,13.62-3.41q7.74,0,12.87,3.55a19,19,0,0,1,7.26,9.93,31.35,31.35,0,0,1,.76,14.93,36.14,36.14,0,0,1-5.43,14.39,29.28,29.28,0,0,1-10.22,9.58A27.38,27.38,0,0,1,406.09,76.46Zm.59-8.82A15,15,0,0,0,415.53,65a20.46,20.46,0,0,0,6.18-7.1A30.25,30.25,0,0,0,425,48.16a27,27,0,0,0,0-9.33,12.36,12.36,0,0,0-3.53-6.8q-2.71-2.57-7.56-2.57A14.94,14.94,0,0,0,405,32.15a20.19,20.19,0,0,0-6.17,7.14A31.3,31.3,0,0,0,395.58,49a26.47,26.47,0,0,0,0,9.28,12.18,12.18,0,0,0,3.54,6.77Q401.83,67.64,406.68,67.64Z"/><path class="cls-1" d="M458.47,43.31,453.2,75.38H442.68l9-54h10.09l-1.47,8.78H461a19.28,19.28,0,0,1,7-6.9,20.5,20.5,0,0,1,10.53-2.59q8.19,0,12.43,5.15T493.52,41l-5.77,34.35H477.24l5.52-33.09q1-5.86-1.51-9.19c-1.66-2.22-4.29-3.32-7.87-3.32a14.36,14.36,0,0,0-9.64,3.53A16.51,16.51,0,0,0,458.47,43.31Z"/><path class="cls-1" d="M517.35,76.57a19.75,19.75,0,0,1-9-1.92,12,12,0,0,1-5.64-5.59,14.65,14.65,0,0,1-1-8.94q1.05-6.12,4.64-9.39A21.26,21.26,0,0,1,515,46a62.76,62.76,0,0,1,10.19-2l8-1a14.17,14.17,0,0,0,4.63-1.22,3.52,3.52,0,0,0,1.88-2.69v-.24q.74-4.58-1.32-7.12t-7.12-2.55a15.87,15.87,0,0,0-8.84,2.32,16.12,16.12,0,0,0-5.26,5.2l-9.42-2.25a22.73,22.73,0,0,1,10.55-10.58,32.51,32.51,0,0,1,14.06-3.2,31.26,31.26,0,0,1,6.72.76,17.12,17.12,0,0,1,6.34,2.78,11.9,11.9,0,0,1,4.27,5.71q1.41,3.69.42,9.6l-5.94,35.86H533.88L535.14,68h-.42a20.89,20.89,0,0,1-6.33,5.8A20.09,20.09,0,0,1,517.35,76.57Zm3.59-8.44a17,17,0,0,0,7.79-1.72,15.61,15.61,0,0,0,5.5-4.52,13.55,13.55,0,0,0,2.64-6l1.16-7a8.82,8.82,0,0,1-3.45,1.3q-2.57.55-5.41.95l-4.57.63a25.43,25.43,0,0,0-8.25,2.41,7.7,7.7,0,0,0-4.27,6q-.63,3.9,1.88,5.89A11,11,0,0,0,520.94,68.13Z"/><path class="cls-1" d="M580.6,3.38l-12,72H558.14l12-72Z"/></g></g></svg>