<svg xmlns="http://www.w3.org/2000/svg" role="img" aria-label="Certificación profesional" viewBox="0 0 661.84 190.54">
  <defs><style>.professional-certificate-logo{}</style></defs>
  <title>Certificación profesional</title>
  <g class="professional-certificate-logo">
    <path class="cls-1" d="M4357.77,5023.55q0,10-6.82,15.39t-19.32,5.35h-10.7v28.61h-4.83v-69.24h17Q4357.77,5003.66,4357.77,5023.55Zm-36.85,16.58h9.52q11.7,0,16.91-3.86t5.21-12.53q0-8-4.93-11.87t-15.25-3.86h-11.46Z" transform="translate(-4310.89 -4883.31)"/>
    <path class="cls-1" d="M4382.51,5042.73v30.17h-4.83v-69.24h16.48q12.88,0,19,4.76t6.16,14.33a18.73,18.73,0,0,1-3.67,11.75q-3.67,4.78-11.15,6.87l18.8,31.54h-5.78l-17.86-30.17Zm0-4.17h13.21q8.76,0,13.59-3.91t4.83-11.53q0-7.91-4.74-11.51T4394,5008h-11.46Z" transform="translate(-4310.89 -4883.31)"/>
    <path class="cls-1" d="M4498.38,5038.19q0,16.48-8.24,26.07t-22.73,9.59q-14.45,0-22.69-9.59t-8.24-26.17q0-16.53,8.31-26t22.71-9.5q14.49,0,22.69,9.54T4498.38,5038.19Zm-56.65,0q0,14.87,6.63,23t19,8.12q12.5,0,19.11-8.05t6.61-23.07q0-15-6.61-22.95t-19-8q-12.36,0-19.06,8.05T4441.73,5038.19Z" transform="translate(-4310.89 -4883.31)"/>
    <path class="cls-1" d="M4524,5072.9h-4.83v-69.24h37.94v4.45H4524v29.37h31.26v4.5H4524Z" transform="translate(-4310.89 -4883.31)"/>
    <path class="cls-1" d="M4610.53,5072.9h-37.84v-69.24h37.84v4.45h-33v26.19h31.17v4.45h-31.17v29.7h33Z" transform="translate(-4310.89 -4883.31)"/>
    <path class="cls-1" d="M4669.28,5055a16.62,16.62,0,0,1-6.37,13.74q-6.37,5.07-16.93,5.07-12.69,0-19.47-2.79v-4.83q7.48,3.17,19.09,3.17,8.52,0,13.52-3.91a12.4,12.4,0,0,0,5-10.25,11.83,11.83,0,0,0-1.66-6.51,15.12,15.12,0,0,0-5.4-4.71,66.45,66.45,0,0,0-11-4.59q-10.61-3.65-14.66-7.89t-4-11.3a15.53,15.53,0,0,1,6.09-12.67q6.09-4.9,15.65-4.9a45.82,45.82,0,0,1,18.33,3.69l-1.75,4.17a42.76,42.76,0,0,0-16.48-3.6q-7.67,0-12.22,3.55a11.6,11.6,0,0,0-4.55,9.66,12.66,12.66,0,0,0,1.4,6.3,12.82,12.82,0,0,0,4.57,4.43,62.33,62.33,0,0,0,10.89,4.71,58.78,58.78,0,0,1,12.17,5.42,17.42,17.42,0,0,1,5.94,6A16.3,16.3,0,0,1,4669.28,5055Z" transform="translate(-4310.89 -4883.31)"/>
    <path class="cls-1" d="M4688.76,5072.9v-69.24h4.83v69.24Z" transform="translate(-4310.89 -4883.31)"/>
    <path class="cls-1" d="M4776.26,5038.19q0,16.48-8.24,26.07t-22.73,9.59q-14.45,0-22.69-9.59t-8.24-26.17q0-16.53,8.31-26t22.71-9.5q14.49,0,22.69,9.54T4776.26,5038.19Zm-56.65,0q0,14.87,6.63,23t19,8.12q12.5,0,19.11-8.05t6.61-23.07q0-15-6.61-22.95t-19-8q-12.36,0-19.06,8.05T4719.61,5038.19Z" transform="translate(-4310.89 -4883.31)"/>
    <path class="cls-1" d="M4847.37,5072.9h-4.88l-41-61.48h-.38q.57,11,.57,16.58v44.9H4797v-69.24h4.83l41,61.38h.28q-.43-8.53-.43-16.2v-45.18h4.69Z" transform="translate(-4310.89 -4883.31)"/>
    <path class="cls-1" d="M4905.17,5048.46H4877l-9.66,24.44H4862l27.85-69.53H4893l27.28,69.53h-5.45Zm-26.38-4.36h24.77l-9.43-25q-1.18-2.94-2.84-8.15a76.1,76.1,0,0,1-2.79,8.24Z" transform="translate(-4310.89 -4883.31)"/>
    <path class="cls-1" d="M4934.89,5072.9v-69.24h4.83v64.7h33v4.55Z" transform="translate(-4310.89 -4883.31)"/>
    <path class="cls-1" d="M4341.4,4905.73q-12,0-18.82,7.65t-6.87,20.95q0,13.6,6.48,21.12t18.51,7.52a50.12,50.12,0,0,0,14.69-2v3.91a47.93,47.93,0,0,1-15.73,2.22q-13.39,0-21.08-8.65t-7.69-24.16a37.9,37.9,0,0,1,3.67-17.08,26.57,26.57,0,0,1,10.56-11.41,31.19,31.19,0,0,1,16-4,38.45,38.45,0,0,1,16.64,3.48l-1.78,4A32.24,32.24,0,0,0,4341.4,4905.73Z" transform="translate(-4310.89 -4883.31)"/>
    <path class="cls-1" d="M4408.73,4966.18H4374v-63.53h34.72v4.08h-30.29v24H4407v4.08h-28.59v27.25h30.29Z" transform="translate(-4310.89 -4883.31)"/>
    <path class="cls-1" d="M4432,4938.5v27.68h-4.43v-63.53h15.12q11.82,0,17.47,4.37t5.65,13.15a17.18,17.18,0,0,1-3.37,10.78q-3.37,4.39-10.23,6.3l17.25,28.94h-5.3l-16.38-27.68Zm0-3.82h12.12q8,0,12.47-3.59t4.43-10.58q0-7.26-4.35-10.56t-14.17-3.3H4432Z" transform="translate(-4310.89 -4883.31)"/>
    <path class="cls-1" d="M4501.46,4966.18H4497v-59.36h-20.64v-4.17h45.76v4.17h-20.64Z" transform="translate(-4310.89 -4883.31)"/>
    <path class="cls-1" d="M4536,4966.18v-63.53h4.43v63.53Z" transform="translate(-4310.89 -4883.31)"/>
    <path class="cls-1" d="M4567.29,4966.18h-4.43v-63.53h34.81v4.08h-30.38v26.94H4596v4.13h-28.68Z" transform="translate(-4310.89 -4883.31)"/>
    <path class="cls-1" d="M4612,4966.18v-63.53h4.43v63.53Z" transform="translate(-4310.89 -4883.31)"/>
    <path class="cls-1" d="M4666,4905.73q-12,0-18.82,7.65t-6.87,20.95q0,13.6,6.48,21.12t18.51,7.52a50.12,50.12,0,0,0,14.69-2v3.91a47.93,47.93,0,0,1-15.73,2.22q-13.39,0-21.08-8.65t-7.69-24.16a37.9,37.9,0,0,1,3.67-17.08,26.57,26.57,0,0,1,10.56-11.41,31.19,31.19,0,0,1,16-4,38.45,38.45,0,0,1,16.64,3.48l-1.78,4A32.24,32.24,0,0,0,4666,4905.73Z" transform="translate(-4310.89 -4883.31)"/>
    <path class="cls-1" d="M4729.17,4943.76h-25.81l-8.87,22.42h-4.91l25.55-63.79H4718l25,63.79h-5Zm-24.21-4h22.73l-8.65-22.9q-1.09-2.69-2.61-7.47a69.65,69.65,0,0,1-2.56,7.56Z" transform="translate(-4310.89 -4883.31)"/>
    <path class="cls-1" d="M4783.55,4905.73q-12,0-18.82,7.65t-6.87,20.95q0,13.6,6.48,21.12t18.51,7.52a50.12,50.12,0,0,0,14.69-2v3.91a47.93,47.93,0,0,1-15.73,2.22q-13.39,0-21.08-8.65t-7.69-24.16a37.9,37.9,0,0,1,3.67-17.08,26.57,26.57,0,0,1,10.56-11.41,31.19,31.19,0,0,1,16-4,38.45,38.45,0,0,1,16.64,3.48l-1.78,4A32.24,32.24,0,0,0,4783.55,4905.73Z" transform="translate(-4310.89 -4883.31)"/>
    <path class="cls-1" d="M4816.16,4966.18v-63.53h4.43v63.53Z" transform="translate(-4310.89 -4883.31)"/>
    <path class="cls-1" d="M4896.44,4934.33q0,15.12-7.56,23.92T4868,4967q-13.25,0-20.82-8.8t-7.56-24q0-15.17,7.63-23.88t20.84-8.71q13.3,0,20.82,8.76T4896.44,4934.33Zm-52,0q0,13.65,6.08,21.1t17.47,7.45q11.47,0,17.53-7.39t6.06-21.16q0-13.73-6.06-21.06t-17.45-7.32q-11.34,0-17.49,7.39T4844.47,4934.33Zm19.38-37.46q3.17-3.43,6.28-7.45a51.29,51.29,0,0,0,4.24-6.11h6.13v.74a47.53,47.53,0,0,1-5.32,6q-3.76,3.74-8.28,7.52h-3Z" transform="translate(-4310.89 -4883.31)"/>
    <path class="cls-1" d="M4961.69,4966.18h-4.48l-37.63-56.41h-.35q.52,10.08.52,15.21v41.2h-4.26v-63.53h4.43l37.59,56.32h.26q-.39-7.82-.39-14.86v-41.46h4.3Z" transform="translate(-4310.89 -4883.31)"/>
  </g>
</svg>