<svg xmlns="http://www.w3.org/2000/svg" role="img" aria-label="Certificado XSeries" viewBox="0 0 534.72 184.6">
  <title class="xseries-logo-title">Certificado XSeries</title>
  <g class="xseries-logo">
    <path class="cls-1" d="M4277.37,4883.35q-11.28,0-17.76,7.22t-6.48,19.77q0,12.84,6.11,19.93t17.47,7.1a47.29,47.29,0,0,0,13.86-1.93v3.69a45.24,45.24,0,0,1-14.85,2.09q-12.63,0-19.89-8.16t-7.26-22.8a35.76,35.76,0,0,1,3.47-16.12,25.08,25.08,0,0,1,10-10.77,29.44,29.44,0,0,1,15.11-3.79,36.28,36.28,0,0,1,15.71,3.28l-1.68,3.77A30.42,30.42,0,0,0,4277.37,4883.35Z" transform="translate(-4248.29 -4879.5)"/>
    <path class="cls-1" d="M4340.92,4940.41h-32.77v-60h32.77v3.86h-28.59V4907h27v3.86h-27v25.72h28.59Z" transform="translate(-4248.29 -4879.5)"/>
    <path class="cls-1" d="M4362.88,4914.28v26.13h-4.18v-60H4373q11.16,0,16.49,4.12t5.33,12.41a16.22,16.22,0,0,1-3.18,10.17q-3.18,4.14-9.66,5.95l16.28,27.32h-5l-15.46-26.13Zm0-3.61h11.44q7.59,0,11.77-3.38t4.18-10q0-6.85-4.1-10t-13.37-3.12h-9.93Z" transform="translate(-4248.29 -4879.5)"/>
    <path class="cls-1" d="M4428.44,4940.41h-4.22v-56h-19.48v-3.94h43.19v3.94h-19.48Z" transform="translate(-4248.29 -4879.5)"/>
    <path class="cls-1" d="M4461,4940.41v-60h4.18v60Z" transform="translate(-4248.29 -4879.5)"/>
    <path class="cls-1" d="M4490.57,4940.41h-4.18v-60h32.85v3.86h-28.67v25.43h27.07v3.9h-27.07Z" transform="translate(-4248.29 -4879.5)"/>
    <path class="cls-1" d="M4532.75,4940.41v-60h4.18v60Z" transform="translate(-4248.29 -4879.5)"/>
    <path class="cls-1" d="M4583.71,4883.35q-11.28,0-17.76,7.22t-6.48,19.77q0,12.84,6.11,19.93t17.47,7.1a47.29,47.29,0,0,0,13.86-1.93v3.69a45.24,45.24,0,0,1-14.85,2.09q-12.63,0-19.89-8.16t-7.26-22.8a35.76,35.76,0,0,1,3.47-16.12,25.08,25.08,0,0,1,10-10.77,29.44,29.44,0,0,1,15.11-3.79,36.28,36.28,0,0,1,15.71,3.28l-1.68,3.77A30.42,30.42,0,0,0,4583.71,4883.35Z" transform="translate(-4248.29 -4879.5)"/>
    <path class="cls-1" d="M4643.36,4919.24H4619l-8.37,21.16H4606l24.12-60.21h2.67l23.63,60.21h-4.72Zm-22.85-3.77H4642l-8.16-21.62q-1-2.54-2.46-7.05a65.88,65.88,0,0,1-2.42,7.14Z" transform="translate(-4248.29 -4879.5)"/>
    <path class="cls-1" d="M4714.62,4909.85q0,15.1-7.92,22.83t-23.26,7.73h-14.36v-60h16.2q14.36,0,21.84,7.51T4714.62,4909.85Zm-4.55.16q0-12.88-6.54-19.38t-19.22-6.5h-11v52.58h9.93Q4710.07,4936.72,4710.07,4910Z" transform="translate(-4248.29 -4879.5)"/>
    <path class="cls-1" d="M4783,4910.34q0,14.27-7.14,22.58t-19.69,8.31q-12.51,0-19.65-8.31t-7.14-22.66q0-14.31,7.2-22.54t19.67-8.22q12.55,0,19.65,8.26T4783,4910.34Zm-49.05,0q0,12.88,5.74,19.91t16.49,7q10.83,0,16.55-7t5.72-20q0-13-5.72-19.87t-16.47-6.91q-10.71,0-16.51,7T4734,4910.34Z" transform="translate(-4248.29 -4879.5)"/>
    <path class="cls-1" d="M4323.08,5062.75h-7.94l-29.32-46.29L4256,5062.75h-7.67l33.39-51.72-30.34-47.51h7.81L4286,5006l27.22-42.49h7.4l-30.75,47.37Z" transform="translate(-4248.29 -4879.5)"/>
    <path class="cls-1" d="M4398.85,5037.16q0,12.42-9.13,19.68t-24.26,7.26q-18.19,0-27.89-4v-6.92q10.72,4.55,27.35,4.55,12.22,0,19.38-5.6a17.76,17.76,0,0,0,7.16-14.69,17,17,0,0,0-2.38-9.33,21.7,21.7,0,0,0-7.74-6.75,95.48,95.48,0,0,0-15.75-6.58q-15.2-5.23-21-11.3t-5.8-16.19a22.25,22.25,0,0,1,8.72-18.16q8.72-7,22.43-7a65.66,65.66,0,0,1,26.27,5.29l-2.51,6a61.29,61.29,0,0,0-23.62-5.16q-11,0-17.51,5.09a16.63,16.63,0,0,0-6.52,13.85,18.14,18.14,0,0,0,2,9,18.39,18.39,0,0,0,6.55,6.35q4.55,2.82,15.61,6.75,11.61,4,17.44,7.77a24.93,24.93,0,0,1,8.52,8.55A23.34,23.34,0,0,1,4398.85,5037.16Z" transform="translate(-4248.29 -4879.5)"/>
    <path class="cls-1" d="M4481,5062.75h-54.23v-99.23H4481v6.38h-47.31v37.53h44.66v6.38h-44.66v42.55H4481Z" transform="translate(-4248.29 -4879.5)"/>
    <path class="cls-1" d="M4517.34,5019.51v43.23h-6.92v-99.23H4534q18.46,0,27.28,6.82t8.82,20.53q0,10-5.26,16.83t-16,9.84l26.94,45.2h-8.28L4542,5019.51Zm0-6h18.94q12.56,0,19.48-5.6t6.92-16.53q0-11.33-6.79-16.49t-22.13-5.16h-16.42Z" transform="translate(-4248.29 -4879.5)"/>
    <path class="cls-1" d="M4600,5062.75v-99.23h6.92v99.23Z" transform="translate(-4248.29 -4879.5)"/>
    <path class="cls-1" d="M4696.16,5062.75h-54.23v-99.23h54.23v6.38h-47.31v37.53h44.66v6.38h-44.66v42.55h47.31Z" transform="translate(-4248.29 -4879.5)"/>
    <path class="cls-1" d="M4780.35,5037.16q0,12.42-9.13,19.68T4747,5064.1q-18.19,0-27.89-4v-6.92q10.72,4.55,27.35,4.55,12.22,0,19.38-5.6a17.76,17.76,0,0,0,7.16-14.69,17,17,0,0,0-2.38-9.33,21.7,21.7,0,0,0-7.74-6.75,95.48,95.48,0,0,0-15.75-6.58q-15.2-5.23-21-11.3t-5.8-16.19a22.25,22.25,0,0,1,8.72-18.16q8.72-7,22.43-7a65.66,65.66,0,0,1,26.27,5.29l-2.51,6a61.29,61.29,0,0,0-23.62-5.16q-11,0-17.51,5.09a16.63,16.63,0,0,0-6.52,13.85,18.14,18.14,0,0,0,2,9,18.39,18.39,0,0,0,6.55,6.35q4.55,2.82,15.61,6.75,11.61,4,17.44,7.77a24.93,24.93,0,0,1,8.52,8.55A23.34,23.34,0,0,1,4780.35,5037.16Z" transform="translate(-4248.29 -4879.5)"/>
  </g>
</svg>